mtllib avatar_eyelashes-Bug_Eyed_Head.mtl
g g0
g g1_avatar_eyelashes
v 0.055306 1.75935 0.09308
v 0.054312 1.7616 0.09066
v 0.057807 1.76401 0.094611
v 0.056257 1.76227 0.09335
v 0.021666 1.76594 0.10162
v 0.033781 1.77023 0.108073
v 0.050899 1.76407 0.094861
v 0.043608 1.76649 0.100549
v 0.05503 1.76668 0.099534
v 0.053056 1.76488 0.098143
v 0.046074 1.76786 0.104055
v 0.048403 1.77026 0.105582
v 0.032128 1.76648 0.100915
v 0.022646 1.76417 0.097834
v 0.033093 1.76804 0.105988
v 0.032832 1.75332 0.102961
v 0.019961 1.75877 0.097895
v 0.019756 1.76036 0.095842
v 0.03288 1.75566 0.100731
v 0.049963 1.75766 0.0955
v 0.051305 1.75512 0.097199
v 0.043855 1.75261 0.10128
v 0.043719 1.75507 0.099191
v -0.055306 1.75935 0.09308
v -0.054312 1.7616 0.09066
v -0.056257 1.76227 0.09335
v -0.057807 1.76401 0.094611
v -0.021666 1.76594 0.10162
v -0.033781 1.77023 0.108073
v -0.043608 1.76649 0.100549
v -0.050899 1.76407 0.094861
v -0.046074 1.76786 0.104055
v -0.053056 1.76488 0.098143
v -0.05503 1.76668 0.099534
v -0.048403 1.77026 0.105582
v -0.022646 1.76417 0.097834
v -0.032128 1.76648 0.100915
v -0.033093 1.76804 0.105988
v -0.019756 1.76036 0.095842
v -0.019961 1.75877 0.097895
v -0.032832 1.75332 0.102961
v -0.03288 1.75566 0.100731
v -0.043855 1.75261 0.10128
v -0.051305 1.75512 0.097199
v -0.049963 1.75766 0.0955
v -0.043719 1.75507 0.099191
vn -0.148559 0.656259 0.739766
vn -0.102353 0.682643 0.723549
vn 0.0506722 0.720946 0.691136
vn -0.148559 0.656259 0.739766
vn -0.224733 0.62101 0.750894
vn -0.102353 0.682643 0.723549
vn -0.176467 0.634123 0.752826
vn -0.224733 0.62101 0.750894
vn -0.148559 0.656259 0.739766
vn -0.176467 0.634123 0.752826
vn -0.148559 0.656259 0.739766
vn -0.162009 0.655937 0.737225
vn -0.162009 0.655937 0.737225
vn -0.0902618 0.705212 0.703228
vn -0.176467 0.634123 0.752826
vn -0.162009 0.655937 0.737225
vn -0.0803451 0.68678 0.722411
vn -0.0902618 0.705212 0.703228
vn -0.0902618 0.705212 0.703228
vn -0.0803451 0.68678 0.722411
vn -0.032297 0.743394 0.668074
vn -0.0902618 0.705212 0.703228
vn -0.032297 0.743394 0.668074
vn -0.0572624 0.792076 0.607731
vn 0.272942 -0.740725 0.613865
vn 0.145597 -0.830984 0.536905
vn 0.34175 -0.731779 0.589666
vn 0.272942 -0.740725 0.613865
vn 0.0297643 -0.868734 0.494384
vn 0.145597 -0.830984 0.536905
vn 0.203743 -0.682683 0.701736
vn 0.0297643 -0.868734 0.494384
vn 0.272942 -0.740725 0.613865
vn 0.203743 -0.682683 0.701736
vn 0.0840424 -0.830961 0.549946
vn 0.0297643 -0.868734 0.494384
vn 0.0220694 -0.664927 0.746582
vn 0.0840424 -0.830961 0.549946
vn 0.203743 -0.682683 0.701736
vn 0.0220694 -0.664927 0.746582
vn 0.0233221 -0.864353 0.502344
vn 0.0840424 -0.830961 0.549946
vn -0.0812317 -0.798549 0.596424
vn 0.0233221 -0.864353 0.502344
vn 0.0220694 -0.664927 0.746582
vn -0.0812317 -0.798549 0.596424
vn 0.0755276 -0.934851 0.346914
vn 0.0233221 -0.864353 0.502344
vn 0.0233221 -0.864353 0.502344
vn 0.0755276 -0.934851 0.346914
vn 0.0627834 -0.950519 0.304256
vn 0.0840424 -0.830961 0.549946
vn 0.0233221 -0.864353 0.502344
vn 0.0627834 -0.950519 0.304256
vn 0.0840424 -0.830961 0.549946
vn 0.0627834 -0.950519 0.304256
vn -0.0436328 -0.935991 0.34931
vn 0.0297643 -0.868734 0.494384
vn 0.0840424 -0.830961 0.549946
vn -0.0436328 -0.935991 0.34931
vn 0.0297643 -0.868734 0.494384
vn -0.0436328 -0.935991 0.349309
vn -0.14966 -0.932574 0.328494
vn 0.0297643 -0.868734 0.494384
vn -0.14966 -0.932574 0.328494
vn -0.20206 -0.909009 0.364519
vn 0.0297643 -0.868734 0.494384
vn -0.20206 -0.909009 0.364519
vn 0.145597 -0.830984 0.536905
vn -0.0297643 -0.868734 0.494384
vn -0.145597 -0.830984 0.536905
vn 0.20206 -0.909009 0.364519
vn -0.0297643 -0.868734 0.494384
vn 0.20206 -0.909009 0.364519
vn 0.14966 -0.932574 0.328494
vn -0.0297643 -0.868734 0.494384
vn 0.14966 -0.932574 0.328494
vn 0.0436328 -0.935991 0.34931
vn -0.0297643 -0.868734 0.494384
vn 0.0436328 -0.935991 0.34931
vn -0.0840424 -0.830961 0.549946
vn -0.0840424 -0.830961 0.549946
vn 0.0436328 -0.935991 0.349309
vn -0.0627834 -0.950519 0.304256
vn -0.0840424 -0.830961 0.549946
vn -0.0627834 -0.950519 0.304256
vn -0.0233221 -0.864353 0.502344
vn -0.0233221 -0.864353 0.502344
vn -0.0627834 -0.950519 0.304256
vn -0.0755276 -0.934851 0.346914
vn 0.0812317 -0.798549 0.596424
vn -0.0233221 -0.864353 0.502344
vn -0.0755276 -0.934851 0.346914
vn 0.0812317 -0.798549 0.596424
vn -0.0220694 -0.664927 0.746582
vn -0.0233221 -0.864353 0.502344
vn -0.0220694 -0.664927 0.746582
vn -0.0840424 -0.830961 0.549946
vn -0.0233221 -0.864353 0.502344
vn -0.0220694 -0.664927 0.746582
vn -0.203743 -0.682683 0.701736
vn -0.0840424 -0.830961 0.549946
vn -0.203743 -0.682683 0.701736
vn -0.0297643 -0.868734 0.494384
vn -0.0840424 -0.830961 0.549946
vn -0.203743 -0.682683 0.701736
vn -0.272942 -0.740725 0.613865
vn -0.0297643 -0.868734 0.494384
vn -0.272942 -0.740725 0.613865
vn -0.145597 -0.830984 0.536905
vn -0.0297643 -0.868734 0.494384
vn -0.272942 -0.740725 0.613865
vn -0.34175 -0.731779 0.589666
vn -0.145597 -0.830984 0.536905
vn 0.0902618 0.705212 0.703228
vn 0.0572624 0.792076 0.607731
vn 0.032297 0.743394 0.668074
vn 0.0902618 0.705212 0.703228
vn 0.032297 0.743394 0.668074
vn 0.0803451 0.68678 0.722411
vn 0.162009 0.655937 0.737225
vn 0.0902618 0.705212 0.703228
vn 0.0803451 0.68678 0.722411
vn 0.162009 0.655937 0.737225
vn 0.176467 0.634123 0.752826
vn 0.0902618 0.705212 0.703228
vn 0.176467 0.634123 0.752826
vn 0.162009 0.655937 0.737225
vn 0.148559 0.656259 0.739766
vn 0.176467 0.634123 0.752826
vn 0.148559 0.656259 0.739766
vn 0.224733 0.62101 0.750894
vn 0.148559 0.656259 0.739766
vn 0.102353 0.682643 0.723549
vn 0.224733 0.62101 0.750894
vn 0.148559 0.656259 0.739766
vn -0.0506722 0.720946 0.691136
vn 0.102353 0.682643 0.723549
vt 0.974 0.931
vt 0.998 0.962
vt 0.998 0.932
vt 0.974 0.931
vt 0.972 0.962
vt 0.998 0.962
vt 0.948 0.962
vt 0.972 0.962
vt 0.974 0.931
vt 0.948 0.962
vt 0.974 0.931
vt 0.948 0.932
vt 0.948 0.932
vt 0.922 0.961
vt 0.948 0.962
vt 0.948 0.932
vt 0.922 0.932
vt 0.922 0.961
vt 0.922 0.961
vt 0.922 0.932
vt 0.894 0.937
vt 0.922 0.961
vt 0.894 0.937
vt 0.894 0.962
vt 0.983 0.997
vt 0.998 0.978
vt 0.997 0.997
vt 0.983 0.997
vt 0.978 0.979
vt 0.998 0.978
vt 0.963 0.996
vt 0.978 0.979
vt 0.983 0.997
vt 0.963 0.996
vt 0.956 0.982
vt 0.978 0.979
vt 0.926 0.996
vt 0.956 0.982
vt 0.963 0.996
vt 0.926 0.996
vt 0.924 0.984
vt 0.956 0.982
vt 0.893 0.996
vt 0.924 0.984
vt 0.926 0.996
vt 0.893 0.996
vt 0.893 0.963
vt 0.924 0.984
vt 0.924 0.984
vt 0.893 0.963
vt 0.92 0.964
vt 0.956 0.982
vt 0.924 0.984
vt 0.92 0.964
vt 0.956 0.982
vt 0.92 0.964
vt 0.951 0.964
vt 0.978 0.979
vt 0.956 0.982
vt 0.951 0.964
vt 0.978 0.979
vt 0.951 0.964
vt 0.977 0.963
vt 0.978 0.979
vt 0.977 0.963
vt 0.998 0.962
vt 0.978 0.979
vt 0.998 0.962
vt 0.998 0.978
vt 0.978 0.979
vt 0.998 0.978
vt 0.998 0.962
vt 0.978 0.979
vt 0.998 0.962
vt 0.977 0.963
vt 0.978 0.979
vt 0.977 0.963
vt 0.951 0.964
vt 0.978 0.979
vt 0.951 0.964
vt 0.956 0.982
vt 0.956 0.982
vt 0.951 0.964
vt 0.92 0.964
vt 0.956 0.982
vt 0.92 0.964
vt 0.924 0.984
vt 0.924 0.984
vt 0.92 0.964
vt 0.893 0.963
vt 0.893 0.996
vt 0.924 0.984
vt 0.893 0.963
vt 0.893 0.996
vt 0.926 0.996
vt 0.924 0.984
vt 0.926 0.996
vt 0.956 0.982
vt 0.924 0.984
vt 0.926 0.996
vt 0.963 0.996
vt 0.956 0.982
vt 0.963 0.996
vt 0.978 0.979
vt 0.956 0.982
vt 0.963 0.996
vt 0.983 0.997
vt 0.978 0.979
vt 0.983 0.997
vt 0.998 0.978
vt 0.978 0.979
vt 0.983 0.997
vt 0.997 0.997
vt 0.998 0.978
vt 0.922 0.961
vt 0.894 0.962
vt 0.894 0.937
vt 0.922 0.961
vt 0.894 0.937
vt 0.922 0.932
vt 0.948 0.932
vt 0.922 0.961
vt 0.922 0.932
vt 0.948 0.932
vt 0.948 0.962
vt 0.922 0.961
vt 0.948 0.962
vt 0.948 0.932
vt 0.974 0.931
vt 0.948 0.962
vt 0.974 0.931
vt 0.972 0.962
vt 0.974 0.931
vt 0.998 0.962
vt 0.972 0.962
vt 0.974 0.931
vt 0.998 0.932
vt 0.998 0.962
usemtl acmat_0
f 44/1/1 25/2/2 24/3/3
f 44/4/4 45/5/5 25/6/6
f 46/7/7 45/8/8 44/9/9
f 46/10/10 44/11/11 43/12/12
f 43/13/13 42/14/14 46/15/15
f 43/16/16 41/17/17 42/18/18
f 42/19/19 41/20/20 40/21/21
f 42/22/22 40/23/23 39/24/24
f 9/25/25 4/26/26 3/27/27
f 9/28/28 10/29/29 4/30/30
f 12/31/31 10/32/32 9/33/33
f 12/34/34 11/35/35 10/36/36
f 6/37/37 11/38/38 12/39/39
f 6/40/40 15/41/41 11/42/42
f 5/43/43 15/44/44 6/45/45
f 5/46/46 14/47/47 15/48/48
f 15/49/49 14/50/50 13/51/51
f 11/52/52 15/53/53 13/54/54
f 11/55/55 13/56/56 8/57/57
f 10/58/58 11/59/59 8/60/60
f 10/61/61 8/62/62 7/63/63
f 10/64/64 7/65/65 2/66/66
f 10/67/67 2/68/68 4/69/69
f 33/70/70 26/71/71 25/72/72
f 33/73/73 25/74/74 31/75/75
f 33/76/76 31/77/77 30/78/78
f 33/79/79 30/80/80 32/81/81
f 32/82/82 30/83/83 37/84/84
f 32/85/85 37/86/86 38/87/87
f 38/88/88 37/89/89 36/90/90
f 28/91/91 38/92/92 36/93/93
f 28/94/94 29/95/95 38/96/96
f 29/97/97 32/98/98 38/99/99
f 29/100/100 35/101/101 32/102/102
f 35/103/103 33/104/104 32/105/105
f 35/106/106 34/107/107 33/108/108
f 34/109/109 26/110/110 33/111/111
f 34/112/112 27/113/113 26/114/114
f 19/115/115 18/116/116 17/117/117
f 19/118/118 17/119/119 16/120/120
f 22/121/121 19/122/122 16/123/123
f 22/124/124 23/125/125 19/126/126
f 23/127/127 22/128/128 21/129/129
f 23/130/130 21/131/131 20/132/132
f 21/133/133 2/134/134 20/135/135
f 21/136/136 1/137/137 2/138/138
