mtllib avatar_eyelashes-Express_Disdain.mtl
g g0
g g1_avatar_eyelashes
v 0.055306 1.75935 0.088341
v 0.054312 1.7616 0.085921
v 0.057807 1.76401 0.089872
v 0.056257 1.76227 0.088611
v 0.021666 1.75914 0.096192
v 0.033781 1.75563 0.103938
v 0.050899 1.75766 0.089502
v 0.043608 1.75599 0.094057
v 0.05503 1.7573 0.094841
v 0.053056 1.75655 0.092696
v 0.046074 1.75523 0.099278
v 0.048403 1.75641 0.101864
v 0.032128 1.75624 0.095892
v 0.022646 1.75971 0.09205
v 0.033093 1.75493 0.100998
v 0.032832 1.75325 0.098222
v 0.019961 1.7587 0.093156
v 0.019756 1.76029 0.091103
v 0.03288 1.75558 0.095992
v 0.049963 1.7571 0.090411
v 0.051305 1.75504 0.09246
v 0.043855 1.75254 0.096541
v 0.043719 1.755 0.094452
v -0.055306 1.75935 0.088341
v -0.054312 1.7616 0.085921
v -0.056257 1.76227 0.088611
v -0.057807 1.76401 0.089872
v -0.021666 1.75914 0.096192
v -0.033781 1.75563 0.103938
v -0.043608 1.75599 0.094057
v -0.050899 1.75766 0.089502
v -0.046074 1.75523 0.099278
v -0.053056 1.75655 0.092696
v -0.05503 1.7573 0.094841
v -0.048403 1.75641 0.101864
v -0.022646 1.75971 0.09205
v -0.032128 1.75624 0.095892
v -0.033093 1.75493 0.100998
v -0.019756 1.76029 0.091103
v -0.019961 1.7587 0.093156
v -0.032832 1.75325 0.098222
v -0.03288 1.75558 0.095992
v -0.043855 1.75254 0.096541
v -0.051305 1.75504 0.09246
v -0.049963 1.7571 0.090411
v -0.043719 1.755 0.094452
vn -0.0748939 0.708302 0.701925
vn 0.0296378 0.712446 0.701101
vn 0.0605934 0.718472 0.692911
vn -0.0748939 0.708302 0.701925
vn -0.0835227 0.729582 0.678773
vn 0.0296378 0.712446 0.701101
vn -0.166396 0.679864 0.71421
vn -0.0835227 0.729582 0.678773
vn -0.0748939 0.708302 0.701925
vn -0.166396 0.679864 0.71421
vn -0.0748939 0.708302 0.701925
vn -0.162047 0.656469 0.736742
vn -0.162047 0.656469 0.736742
vn -0.0905488 0.705956 0.702443
vn -0.166396 0.679864 0.714211
vn -0.162047 0.656469 0.736742
vn -0.080903 0.688306 0.720895
vn -0.0905488 0.705956 0.702443
vn -0.0905488 0.705956 0.702443
vn -0.080903 0.688306 0.720895
vn -0.0332365 0.744106 0.667235
vn -0.0905488 0.705956 0.702443
vn -0.0332365 0.744106 0.667235
vn -0.0578981 0.792077 0.607669
vn 0.614436 -0.765225 -0.192092
vn 0.72405 -0.604861 -0.331504
vn 0.807169 -0.528627 -0.262738
vn 0.614436 -0.765225 -0.192092
vn 0.35684 -0.906011 -0.227617
vn 0.72405 -0.604861 -0.331504
vn 0.221481 -0.954457 0.199893
vn 0.35684 -0.906011 -0.227617
vn 0.614436 -0.765225 -0.192092
vn 0.221481 -0.954457 0.199893
vn 0.0769365 -0.996597 0.0295953
vn 0.35684 -0.906011 -0.227617
vn -0.0998439 -0.949544 0.297316
vn 0.0769365 -0.996597 0.0295953
vn 0.221481 -0.954457 0.199893
vn -0.0998439 -0.949544 0.297316
vn -0.195496 -0.980446 -0.0225122
vn 0.0769365 -0.996597 0.0295953
vn -0.366383 -0.928678 0.0576224
vn -0.195496 -0.980446 -0.0225122
vn -0.0998439 -0.949544 0.297316
vn -0.366383 -0.928678 0.0576224
vn -0.267296 -0.944227 -0.192322
vn -0.195496 -0.980446 -0.0225122
vn -0.195496 -0.980446 -0.0225122
vn -0.267296 -0.944227 -0.192322
vn -0.107433 -0.976046 -0.189187
vn 0.0769365 -0.996597 0.0295953
vn -0.195496 -0.980446 -0.0225122
vn -0.107433 -0.976046 -0.189187
vn 0.0769365 -0.996597 0.0295953
vn -0.107433 -0.976046 -0.189187
vn 0.000586673 -0.978334 -0.207031
vn 0.35684 -0.906011 -0.227617
vn 0.0769365 -0.996597 0.0295953
vn 0.000586673 -0.978334 -0.207031
vn 0.35684 -0.906011 -0.227617
vn 0.000586673 -0.978334 -0.207031
vn 0.188307 -0.88128 -0.433458
vn 0.35684 -0.906011 -0.227617
vn 0.188307 -0.88128 -0.433458
vn 0.537615 -0.720757 -0.437583
vn 0.35684 -0.906011 -0.227617
vn 0.537615 -0.720757 -0.437583
vn 0.72405 -0.604861 -0.331504
vn -0.35684 -0.906011 -0.227617
vn -0.72405 -0.604861 -0.331504
vn -0.537615 -0.720757 -0.437583
vn -0.35684 -0.906011 -0.227617
vn -0.537615 -0.720757 -0.437583
vn -0.188307 -0.88128 -0.433458
vn -0.35684 -0.906011 -0.227617
vn -0.188307 -0.88128 -0.433458
vn -0.000586673 -0.978334 -0.207031
vn -0.35684 -0.906011 -0.227617
vn -0.000586673 -0.978334 -0.207031
vn -0.0769365 -0.996597 0.0295953
vn -0.0769365 -0.996597 0.0295953
vn -0.000586673 -0.978334 -0.207031
vn 0.107433 -0.976046 -0.189187
vn -0.0769365 -0.996597 0.0295953
vn 0.107433 -0.976046 -0.189187
vn 0.195496 -0.980446 -0.0225122
vn 0.195496 -0.980446 -0.0225122
vn 0.107433 -0.976046 -0.189187
vn 0.267296 -0.944227 -0.192322
vn 0.366383 -0.928678 0.0576224
vn 0.195496 -0.980446 -0.0225122
vn 0.267296 -0.944227 -0.192322
vn 0.366383 -0.928678 0.0576224
vn 0.0998439 -0.949544 0.297316
vn 0.195496 -0.980446 -0.0225122
vn 0.0998439 -0.949544 0.297316
vn -0.0769365 -0.996597 0.0295953
vn 0.195496 -0.980446 -0.0225122
vn 0.0998439 -0.949544 0.297316
vn -0.221481 -0.954457 0.199893
vn -0.0769365 -0.996597 0.0295953
vn -0.221481 -0.954457 0.199893
vn -0.35684 -0.906011 -0.227617
vn -0.0769365 -0.996597 0.0295953
vn -0.221481 -0.954457 0.199893
vn -0.614436 -0.765225 -0.192092
vn -0.35684 -0.906011 -0.227617
vn -0.614436 -0.765225 -0.192092
vn -0.72405 -0.604861 -0.331504
vn -0.35684 -0.906011 -0.227617
vn -0.614436 -0.765225 -0.192092
vn -0.807169 -0.528627 -0.262738
vn -0.72405 -0.604861 -0.331504
vn 0.0905488 0.705956 0.702443
vn 0.0578981 0.792077 0.607669
vn 0.0332365 0.744106 0.667235
vn 0.0905488 0.705956 0.702443
vn 0.0332365 0.744106 0.667235
vn 0.080903 0.688306 0.720895
vn 0.162047 0.656469 0.736742
vn 0.0905488 0.705956 0.702443
vn 0.080903 0.688306 0.720895
vn 0.162047 0.656469 0.736742
vn 0.166396 0.679864 0.71421
vn 0.0905488 0.705956 0.702443
vn 0.166396 0.679864 0.71421
vn 0.162047 0.656469 0.736742
vn 0.0748939 0.708302 0.701925
vn 0.166396 0.679864 0.714211
vn 0.0748939 0.708302 0.701925
vn 0.0835227 0.729582 0.678773
vn 0.0748939 0.708302 0.701925
vn -0.0296378 0.712446 0.701101
vn 0.0835227 0.729582 0.678773
vn 0.0748939 0.708302 0.701925
vn -0.0605934 0.718472 0.692911
vn -0.0296378 0.712446 0.701101
vt 0.974 0.931
vt 0.998 0.962
vt 0.998 0.932
vt 0.974 0.931
vt 0.972 0.962
vt 0.998 0.962
vt 0.948 0.962
vt 0.972 0.962
vt 0.974 0.931
vt 0.948 0.962
vt 0.974 0.931
vt 0.948 0.932
vt 0.948 0.932
vt 0.922 0.961
vt 0.948 0.962
vt 0.948 0.932
vt 0.922 0.932
vt 0.922 0.961
vt 0.922 0.961
vt 0.922 0.932
vt 0.894 0.937
vt 0.922 0.961
vt 0.894 0.937
vt 0.894 0.962
vt 0.983 0.997
vt 0.998 0.978
vt 0.997 0.997
vt 0.983 0.997
vt 0.978 0.979
vt 0.998 0.978
vt 0.963 0.996
vt 0.978 0.979
vt 0.983 0.997
vt 0.963 0.996
vt 0.956 0.982
vt 0.978 0.979
vt 0.926 0.996
vt 0.956 0.982
vt 0.963 0.996
vt 0.926 0.996
vt 0.924 0.984
vt 0.956 0.982
vt 0.893 0.996
vt 0.924 0.984
vt 0.926 0.996
vt 0.893 0.996
vt 0.893 0.963
vt 0.924 0.984
vt 0.924 0.984
vt 0.893 0.963
vt 0.92 0.964
vt 0.956 0.982
vt 0.924 0.984
vt 0.92 0.964
vt 0.956 0.982
vt 0.92 0.964
vt 0.951 0.964
vt 0.978 0.979
vt 0.956 0.982
vt 0.951 0.964
vt 0.978 0.979
vt 0.951 0.964
vt 0.977 0.963
vt 0.978 0.979
vt 0.977 0.963
vt 0.998 0.962
vt 0.978 0.979
vt 0.998 0.962
vt 0.998 0.978
vt 0.978 0.979
vt 0.998 0.978
vt 0.998 0.962
vt 0.978 0.979
vt 0.998 0.962
vt 0.977 0.963
vt 0.978 0.979
vt 0.977 0.963
vt 0.951 0.964
vt 0.978 0.979
vt 0.951 0.964
vt 0.956 0.982
vt 0.956 0.982
vt 0.951 0.964
vt 0.92 0.964
vt 0.956 0.982
vt 0.92 0.964
vt 0.924 0.984
vt 0.924 0.984
vt 0.92 0.964
vt 0.893 0.963
vt 0.893 0.996
vt 0.924 0.984
vt 0.893 0.963
vt 0.893 0.996
vt 0.926 0.996
vt 0.924 0.984
vt 0.926 0.996
vt 0.956 0.982
vt 0.924 0.984
vt 0.926 0.996
vt 0.963 0.996
vt 0.956 0.982
vt 0.963 0.996
vt 0.978 0.979
vt 0.956 0.982
vt 0.963 0.996
vt 0.983 0.997
vt 0.978 0.979
vt 0.983 0.997
vt 0.998 0.978
vt 0.978 0.979
vt 0.983 0.997
vt 0.997 0.997
vt 0.998 0.978
vt 0.922 0.961
vt 0.894 0.962
vt 0.894 0.937
vt 0.922 0.961
vt 0.894 0.937
vt 0.922 0.932
vt 0.948 0.932
vt 0.922 0.961
vt 0.922 0.932
vt 0.948 0.932
vt 0.948 0.962
vt 0.922 0.961
vt 0.948 0.962
vt 0.948 0.932
vt 0.974 0.931
vt 0.948 0.962
vt 0.974 0.931
vt 0.972 0.962
vt 0.974 0.931
vt 0.998 0.962
vt 0.972 0.962
vt 0.974 0.931
vt 0.998 0.932
vt 0.998 0.962
usemtl acmat_0
f 44/1/1 25/2/2 24/3/3
f 44/4/4 45/5/5 25/6/6
f 46/7/7 45/8/8 44/9/9
f 46/10/10 44/11/11 43/12/12
f 43/13/13 42/14/14 46/15/15
f 43/16/16 41/17/17 42/18/18
f 42/19/19 41/20/20 40/21/21
f 42/22/22 40/23/23 39/24/24
f 9/25/25 4/26/26 3/27/27
f 9/28/28 10/29/29 4/30/30
f 12/31/31 10/32/32 9/33/33
f 12/34/34 11/35/35 10/36/36
f 6/37/37 11/38/38 12/39/39
f 6/40/40 15/41/41 11/42/42
f 5/43/43 15/44/44 6/45/45
f 5/46/46 14/47/47 15/48/48
f 15/49/49 14/50/50 13/51/51
f 11/52/52 15/53/53 13/54/54
f 11/55/55 13/56/56 8/57/57
f 10/58/58 11/59/59 8/60/60
f 10/61/61 8/62/62 7/63/63
f 10/64/64 7/65/65 2/66/66
f 10/67/67 2/68/68 4/69/69
f 33/70/70 26/71/71 25/72/72
f 33/73/73 25/74/74 31/75/75
f 33/76/76 31/77/77 30/78/78
f 33/79/79 30/80/80 32/81/81
f 32/82/82 30/83/83 37/84/84
f 32/85/85 37/86/86 38/87/87
f 38/88/88 37/89/89 36/90/90
f 28/91/91 38/92/92 36/93/93
f 28/94/94 29/95/95 38/96/96
f 29/97/97 32/98/98 38/99/99
f 29/100/100 35/101/101 32/102/102
f 35/103/103 33/104/104 32/105/105
f 35/106/106 34/107/107 33/108/108
f 34/109/109 26/110/110 33/111/111
f 34/112/112 27/113/113 26/114/114
f 19/115/115 18/116/116 17/117/117
f 19/118/118 17/119/119 16/120/120
f 22/121/121 19/122/122 16/123/123
f 22/124/124 23/125/125 19/126/126
f 23/127/127 22/128/128 21/129/129
f 23/130/130 21/131/131 20/132/132
f 21/133/133 2/134/134 20/135/135
f 21/136/136 1/137/137 2/138/138
