mtllib avatar_eyelashes-Head_Eyes_Big.mtl
g g0
g g1_avatar_eyelashes
v 0.058795 1.75668 0.087571
v 0.057996 1.76156 0.083706
v 0.061356 1.76425 0.089872
v 0.058929 1.76248 0.087409
v 0.018369 1.76708 0.096919
v 0.033528 1.77244 0.104994
v 0.054713 1.76465 0.088958
v 0.045598 1.76767 0.095115
v 0.060117 1.76799 0.094309
v 0.057647 1.76574 0.092569
v 0.04891 1.76947 0.099966
v 0.051825 1.77248 0.101877
v 0.031523 1.76766 0.097028
v 0.019392 1.76477 0.091472
v 0.032667 1.7697 0.102385
v 0.032341 1.75128 0.098597
v 0.016235 1.7581 0.092258
v 0.015779 1.76001 0.090184
v 0.032186 1.75413 0.096296
v 0.053543 1.75664 0.089757
v 0.055456 1.75353 0.091388
v 0.046133 1.7504 0.096494
v 0.045737 1.7534 0.094371
v -0.058795 1.75668 0.087571
v -0.057996 1.76156 0.083706
v -0.058929 1.76248 0.087409
v -0.061356 1.76425 0.089872
v -0.018369 1.76708 0.096919
v -0.033528 1.77244 0.104994
v -0.045598 1.76767 0.095115
v -0.054713 1.76465 0.088958
v -0.04891 1.76947 0.099966
v -0.057647 1.76574 0.092569
v -0.060117 1.76799 0.094309
v -0.051825 1.77248 0.101877
v -0.019392 1.76477 0.091472
v -0.031523 1.76766 0.097028
v -0.032667 1.7697 0.102385
v -0.015779 1.76001 0.090184
v -0.016235 1.7581 0.092258
v -0.032341 1.75128 0.098597
v -0.032186 1.75413 0.096296
v -0.046133 1.7504 0.096494
v -0.055456 1.75353 0.091388
v -0.053543 1.75664 0.089757
v -0.045737 1.7534 0.094371
vn -0.265345 0.59123 0.761603
vn -0.296461 0.609575 0.735207
vn -0.253062 0.625786 0.737802
vn -0.265345 0.59123 0.761603
vn -0.288159 0.577751 0.763654
vn -0.296461 0.609575 0.735207
vn -0.204309 0.576416 0.791203
vn -0.288159 0.577751 0.763654
vn -0.265345 0.59123 0.761603
vn -0.204309 0.576416 0.791203
vn -0.265345 0.59123 0.761603
vn -0.177788 0.597934 0.781579
vn -0.177788 0.597934 0.781579
vn -0.0685495 0.647337 0.759115
vn -0.204309 0.576416 0.791203
vn -0.177788 0.597934 0.781579
vn -0.0579123 0.629028 0.775223
vn -0.0685495 0.647337 0.759115
vn -0.0685495 0.647337 0.759115
vn -0.0579123 0.629028 0.775223
vn 0.0144992 0.68378 0.729545
vn -0.0685495 0.647337 0.759115
vn 0.0144992 0.68378 0.729545
vn -0.0122974 0.736886 0.675905
vn 0.145944 -0.767565 0.624135
vn -0.124403 -0.826385 0.549192
vn -0.0759289 -0.772752 0.630151
vn 0.145944 -0.767565 0.624135
vn -0.0172387 -0.860601 0.508989
vn -0.124403 -0.826385 0.549192
vn 0.203754 -0.682221 0.702182
vn -0.0172387 -0.860601 0.508989
vn 0.145944 -0.767565 0.624134
vn 0.203754 -0.682221 0.702182
vn 0.0892743 -0.8291 0.551927
vn -0.0172386 -0.860601 0.508989
vn 0.021943 -0.664704 0.746784
vn 0.0892743 -0.8291 0.551927
vn 0.203754 -0.682221 0.702182
vn 0.021943 -0.664704 0.746784
vn 0.0113456 -0.853693 0.520653
vn 0.0892743 -0.8291 0.551927
vn -0.0745913 -0.80908 0.582945
vn 0.0113456 -0.853693 0.520653
vn 0.021943 -0.664704 0.746784
vn -0.0745913 -0.80908 0.582945
vn 0.0422328 -0.928783 0.36821
vn 0.0113456 -0.853693 0.520653
vn 0.0113456 -0.853693 0.520653
vn 0.0422328 -0.928783 0.36821
vn 0.0497359 -0.940061 0.337361
vn 0.0892743 -0.8291 0.551927
vn 0.0113456 -0.853693 0.520653
vn 0.0497359 -0.940061 0.337361
vn 0.0892743 -0.8291 0.551927
vn 0.0497359 -0.940061 0.337361
vn -0.0328745 -0.935669 0.351344
vn -0.0172386 -0.860601 0.508989
vn 0.0892743 -0.8291 0.551927
vn -0.0328745 -0.935669 0.351344
vn -0.0172387 -0.860601 0.508989
vn -0.0328745 -0.935669 0.351344
vn -0.127696 -0.916016 0.380273
vn -0.0172386 -0.860601 0.508989
vn -0.127696 -0.916016 0.380273
vn -0.384865 -0.840542 0.381272
vn -0.0172386 -0.860601 0.508989
vn -0.384865 -0.840542 0.381272
vn -0.124403 -0.826385 0.549192
vn 0.0172387 -0.860601 0.508989
vn 0.124403 -0.826385 0.549192
vn 0.384865 -0.840542 0.381272
vn 0.0172387 -0.860601 0.508989
vn 0.384865 -0.840542 0.381272
vn 0.127696 -0.916016 0.380273
vn 0.0172387 -0.860601 0.508989
vn 0.127696 -0.916016 0.380273
vn 0.0328745 -0.935669 0.351344
vn 0.0172387 -0.860601 0.508989
vn 0.0328745 -0.935669 0.351344
vn -0.0892743 -0.8291 0.551927
vn -0.0892743 -0.8291 0.551927
vn 0.0328745 -0.935669 0.351344
vn -0.0497359 -0.940061 0.337361
vn -0.0892743 -0.8291 0.551927
vn -0.0497359 -0.940061 0.337361
vn -0.0113456 -0.853693 0.520653
vn -0.0113456 -0.853693 0.520653
vn -0.0497359 -0.940061 0.337361
vn -0.0422328 -0.928783 0.36821
vn 0.0745913 -0.80908 0.582945
vn -0.0113456 -0.853693 0.520653
vn -0.0422328 -0.928783 0.36821
vn 0.0745913 -0.80908 0.582945
vn -0.021943 -0.664704 0.746784
vn -0.0113456 -0.853693 0.520653
vn -0.021943 -0.664704 0.746784
vn -0.0892743 -0.8291 0.551927
vn -0.0113456 -0.853693 0.520653
vn -0.021943 -0.664704 0.746784
vn -0.203754 -0.682221 0.702182
vn -0.0892743 -0.8291 0.551927
vn -0.203754 -0.682221 0.702182
vn 0.0172386 -0.860601 0.508989
vn -0.0892743 -0.8291 0.551927
vn -0.203754 -0.682221 0.702182
vn -0.145944 -0.767565 0.624134
vn 0.0172387 -0.860601 0.508989
vn -0.145944 -0.767565 0.624134
vn 0.124403 -0.826385 0.549192
vn 0.0172387 -0.860601 0.508989
vn -0.145944 -0.767565 0.624134
vn 0.0759289 -0.772752 0.630151
vn 0.124403 -0.826385 0.549192
vn 0.0685495 0.647337 0.759115
vn 0.0122974 0.736886 0.675905
vn -0.0144992 0.68378 0.729545
vn 0.0685495 0.647337 0.759115
vn -0.0144992 0.68378 0.729545
vn 0.0579123 0.629028 0.775223
vn 0.177788 0.597934 0.781579
vn 0.0685495 0.647337 0.759115
vn 0.0579123 0.629028 0.775223
vn 0.177788 0.597934 0.781579
vn 0.204309 0.576416 0.791203
vn 0.0685495 0.647337 0.759115
vn 0.204309 0.576416 0.791203
vn 0.177788 0.597934 0.781579
vn 0.265345 0.59123 0.761603
vn 0.204309 0.576416 0.791203
vn 0.265345 0.59123 0.761603
vn 0.288159 0.577751 0.763654
vn 0.265345 0.59123 0.761603
vn 0.296461 0.609575 0.735207
vn 0.288159 0.577751 0.763654
vn 0.265345 0.59123 0.761603
vn 0.253062 0.625786 0.737802
vn 0.296461 0.609575 0.735207
vt 0.974 0.931
vt 0.998 0.962
vt 0.998 0.932
vt 0.974 0.931
vt 0.972 0.962
vt 0.998 0.962
vt 0.948 0.962
vt 0.972 0.962
vt 0.974 0.931
vt 0.948 0.962
vt 0.974 0.931
vt 0.948 0.932
vt 0.948 0.932
vt 0.922 0.961
vt 0.948 0.962
vt 0.948 0.932
vt 0.922 0.932
vt 0.922 0.961
vt 0.922 0.961
vt 0.922 0.932
vt 0.894 0.937
vt 0.922 0.961
vt 0.894 0.937
vt 0.894 0.962
vt 0.983 0.997
vt 0.998 0.978
vt 0.997 0.997
vt 0.983 0.997
vt 0.978 0.979
vt 0.998 0.978
vt 0.963 0.996
vt 0.978 0.979
vt 0.983 0.997
vt 0.963 0.996
vt 0.956 0.982
vt 0.978 0.979
vt 0.926 0.996
vt 0.956 0.982
vt 0.963 0.996
vt 0.926 0.996
vt 0.924 0.984
vt 0.956 0.982
vt 0.893 0.996
vt 0.924 0.984
vt 0.926 0.996
vt 0.893 0.996
vt 0.893 0.963
vt 0.924 0.984
vt 0.924 0.984
vt 0.893 0.963
vt 0.92 0.964
vt 0.956 0.982
vt 0.924 0.984
vt 0.92 0.964
vt 0.956 0.982
vt 0.92 0.964
vt 0.951 0.964
vt 0.978 0.979
vt 0.956 0.982
vt 0.951 0.964
vt 0.978 0.979
vt 0.951 0.964
vt 0.977 0.963
vt 0.978 0.979
vt 0.977 0.963
vt 0.998 0.962
vt 0.978 0.979
vt 0.998 0.962
vt 0.998 0.978
vt 0.978 0.979
vt 0.998 0.978
vt 0.998 0.962
vt 0.978 0.979
vt 0.998 0.962
vt 0.977 0.963
vt 0.978 0.979
vt 0.977 0.963
vt 0.951 0.964
vt 0.978 0.979
vt 0.951 0.964
vt 0.956 0.982
vt 0.956 0.982
vt 0.951 0.964
vt 0.92 0.964
vt 0.956 0.982
vt 0.92 0.964
vt 0.924 0.984
vt 0.924 0.984
vt 0.92 0.964
vt 0.893 0.963
vt 0.893 0.996
vt 0.924 0.984
vt 0.893 0.963
vt 0.893 0.996
vt 0.926 0.996
vt 0.924 0.984
vt 0.926 0.996
vt 0.956 0.982
vt 0.924 0.984
vt 0.926 0.996
vt 0.963 0.996
vt 0.956 0.982
vt 0.963 0.996
vt 0.978 0.979
vt 0.956 0.982
vt 0.963 0.996
vt 0.983 0.997
vt 0.978 0.979
vt 0.983 0.997
vt 0.998 0.978
vt 0.978 0.979
vt 0.983 0.997
vt 0.997 0.997
vt 0.998 0.978
vt 0.922 0.961
vt 0.894 0.962
vt 0.894 0.937
vt 0.922 0.961
vt 0.894 0.937
vt 0.922 0.932
vt 0.948 0.932
vt 0.922 0.961
vt 0.922 0.932
vt 0.948 0.932
vt 0.948 0.962
vt 0.922 0.961
vt 0.948 0.962
vt 0.948 0.932
vt 0.974 0.931
vt 0.948 0.962
vt 0.974 0.931
vt 0.972 0.962
vt 0.974 0.931
vt 0.998 0.962
vt 0.972 0.962
vt 0.974 0.931
vt 0.998 0.932
vt 0.998 0.962
usemtl acmat_0
f 44/1/1 25/2/2 24/3/3
f 44/4/4 45/5/5 25/6/6
f 46/7/7 45/8/8 44/9/9
f 46/10/10 44/11/11 43/12/12
f 43/13/13 42/14/14 46/15/15
f 43/16/16 41/17/17 42/18/18
f 42/19/19 41/20/20 40/21/21
f 42/22/22 40/23/23 39/24/24
f 9/25/25 4/26/26 3/27/27
f 9/28/28 10/29/29 4/30/30
f 12/31/31 10/32/32 9/33/33
f 12/34/34 11/35/35 10/36/36
f 6/37/37 11/38/38 12/39/39
f 6/40/40 15/41/41 11/42/42
f 5/43/43 15/44/44 6/45/45
f 5/46/46 14/47/47 15/48/48
f 15/49/49 14/50/50 13/51/51
f 11/52/52 15/53/53 13/54/54
f 11/55/55 13/56/56 8/57/57
f 10/58/58 11/59/59 8/60/60
f 10/61/61 8/62/62 7/63/63
f 10/64/64 7/65/65 2/66/66
f 10/67/67 2/68/68 4/69/69
f 33/70/70 26/71/71 25/72/72
f 33/73/73 25/74/74 31/75/75
f 33/76/76 31/77/77 30/78/78
f 33/79/79 30/80/80 32/81/81
f 32/82/82 30/83/83 37/84/84
f 32/85/85 37/86/86 38/87/87
f 38/88/88 37/89/89 36/90/90
f 28/91/91 38/92/92 36/93/93
f 28/94/94 29/95/95 38/96/96
f 29/97/97 32/98/98 38/99/99
f 29/100/100 35/101/101 32/102/102
f 35/103/103 33/104/104 32/105/105
f 35/106/106 34/107/107 33/108/108
f 34/109/109 26/110/110 33/111/111
f 34/112/112 27/113/113 26/114/114
f 19/115/115 18/116/116 17/117/117
f 19/118/118 17/119/119 16/120/120
f 22/121/121 19/122/122 16/123/123
f 22/124/124 23/125/125 19/126/126
f 23/127/127 22/128/128 21/129/129
f 23/130/130 21/131/131 20/132/132
f 21/133/133 2/134/134 20/135/135
f 21/136/136 1/137/137 2/138/138
