mtllib avatar_eyelashes-Pop_Eye.mtl
g g0
g g1_avatar_eyelashes
v 0.055306 1.7572 0.08886
v 0.056894 1.76157 0.079883
v 0.057807 1.76525 0.090365
v 0.057319 1.76367 0.087876
v 0.021666 1.76682 0.096881
v 0.033781 1.77111 0.103334
v 0.053529 1.76444 0.088616
v 0.045547 1.7676 0.09581
v 0.05503 1.76756 0.094795
v 0.053056 1.76576 0.093404
v 0.046074 1.76874 0.099316
v 0.048403 1.77114 0.100843
v 0.032105 1.76785 0.096176
v 0.022485 1.76469 0.093095
v 0.033093 1.76892 0.101249
v 0.032832 1.75232 0.098222
v 0.019961 1.75777 0.093156
v 0.019734 1.76016 0.091103
v 0.032889 1.75389 0.093817
v 0.052523 1.75687 0.08731
v 0.051305 1.75412 0.09246
v 0.043855 1.75161 0.096541
v 0.045589 1.75316 0.091885
v -0.055306 1.75935 0.088341
v -0.051443 1.76162 0.085921
v -0.056257 1.76227 0.088611
v -0.057807 1.76401 0.089872
v -0.021666 1.76468 0.096881
v -0.033781 1.76897 0.103334
v -0.041453 1.76537 0.09581
v -0.047976 1.76368 0.090122
v -0.046074 1.7666 0.099316
v -0.053056 1.76362 0.093404
v -0.05503 1.76541 0.094795
v -0.048403 1.769 0.100843
v -0.02286 1.76365 0.093095
v -0.032156 1.76519 0.096176
v -0.033093 1.76678 0.101249
v -0.019823 1.7605 0.091103
v -0.019961 1.76058 0.093156
v -0.032832 1.75513 0.098222
v -0.03287 1.75739 0.096922
v -0.043855 1.75442 0.096541
v -0.051305 1.75692 0.09246
v -0.047118 1.75841 0.091691
v -0.041641 1.75661 0.095382
vn -0.165728 0.752228 0.63772
vn -0.14362 0.802149 0.579595
vn -0.109284 0.806048 0.581673
vn -0.165728 0.752228 0.63772
vn -0.169649 0.784541 0.596418
vn -0.14362 0.802149 0.579595
vn -0.188171 0.666602 0.721272
vn -0.169649 0.784541 0.596418
vn -0.165728 0.752228 0.63772
vn -0.188171 0.666602 0.721272
vn -0.165728 0.752228 0.63772
vn -0.187843 0.570495 0.799532
vn -0.187843 0.570495 0.799532
vn -0.134351 0.717034 0.683967
vn -0.188171 0.666602 0.721272
vn -0.187843 0.570495 0.799532
vn -0.0173065 0.498327 0.866817
vn -0.134351 0.717034 0.683967
vn -0.134351 0.717034 0.683967
vn -0.0173065 0.498327 0.866817
vn -0.0756843 0.87367 0.480597
vn -0.134351 0.717034 0.683968
vn -0.0756843 0.87367 0.480597
vn -0.254552 0.965509 -0.054729
vn 0.216214 -0.789256 0.57474
vn 0.105406 -0.885704 0.452125
vn 0.116888 -0.848684 0.515822
vn 0.216214 -0.789256 0.57474
vn 0.0312845 -0.897318 0.440274
vn 0.105406 -0.885704 0.452125
vn 0.203743 -0.682683 0.701736
vn 0.0312845 -0.897318 0.440274
vn 0.216214 -0.789256 0.57474
vn 0.203743 -0.682683 0.701736
vn 0.0666525 -0.851112 0.520736
vn 0.0312845 -0.897318 0.440274
vn 0.0220694 -0.664927 0.746582
vn 0.0666525 -0.851112 0.520736
vn 0.203743 -0.682683 0.701736
vn 0.0220694 -0.664927 0.746582
vn 0.0398397 -0.875884 0.480874
vn 0.0666525 -0.851112 0.520736
vn -0.0955651 -0.776215 0.623184
vn 0.0398397 -0.875884 0.480874
vn 0.0220694 -0.664927 0.746582
vn -0.0955651 -0.776215 0.623184
vn 0.123115 -0.937299 0.326058
vn 0.0398397 -0.875884 0.480874
vn 0.0398397 -0.875884 0.480874
vn 0.123115 -0.937299 0.326058
vn 0.0917779 -0.970437 0.223222
vn 0.0666525 -0.851112 0.520736
vn 0.0398397 -0.875884 0.480874
vn 0.0917779 -0.970437 0.223222
vn 0.0666525 -0.851112 0.520736
vn 0.0917779 -0.970437 0.223222
vn -0.0969155 -0.95058 0.294965
vn 0.0312845 -0.897318 0.440274
vn 0.0666525 -0.851112 0.520736
vn -0.0969155 -0.95058 0.294965
vn 0.0312845 -0.897318 0.440274
vn -0.0969155 -0.95058 0.294965
vn -0.165462 -0.954814 0.246887
vn 0.0312845 -0.897318 0.440274
vn -0.165462 -0.954814 0.246887
vn -0.155042 -0.955226 0.252002
vn 0.0312845 -0.897318 0.440274
vn -0.155042 -0.955226 0.252002
vn 0.105406 -0.885704 0.452125
vn -0.0698879 -0.897771 0.434883
vn -0.283883 -0.863397 0.417081
vn 0.108538 -0.954298 0.27845
vn -0.0698879 -0.897771 0.434883
vn 0.108538 -0.954298 0.27845
vn 0.158099 -0.96094 0.227155
vn -0.0698879 -0.897771 0.434883
vn 0.158099 -0.96094 0.227155
vn 0.0472722 -0.957208 0.285515
vn -0.0698879 -0.897771 0.434883
vn 0.0472722 -0.957208 0.285515
vn -0.0872813 -0.836256 0.541349
vn -0.0872813 -0.836256 0.541349
vn 0.0472722 -0.957208 0.285515
vn -0.0411764 -0.955417 0.292376
vn -0.0872813 -0.836256 0.541349
vn -0.0411764 -0.955417 0.292376
vn -0.019566 -0.877241 0.479651
vn -0.019566 -0.877241 0.479651
vn -0.0411764 -0.955417 0.292376
vn -0.0655141 -0.95632 0.284885
vn 0.0495406 -0.843359 0.535061
vn -0.019566 -0.877241 0.479651
vn -0.0655141 -0.95632 0.284885
vn 0.0495406 -0.843359 0.535061
vn -0.0220723 -0.664935 0.746575
vn -0.019566 -0.877241 0.479651
vn -0.0220723 -0.664935 0.746575
vn -0.0872813 -0.836256 0.541349
vn -0.019566 -0.877241 0.479651
vn -0.0220723 -0.664935 0.746575
vn -0.202996 -0.683081 0.701565
vn -0.0872813 -0.836256 0.541349
vn -0.202996 -0.683081 0.701565
vn -0.0698879 -0.897771 0.434883
vn -0.0872813 -0.836256 0.541349
vn -0.202996 -0.683081 0.701565
vn -0.350649 -0.765186 0.53994
vn -0.0698879 -0.897771 0.434883
vn -0.350649 -0.765186 0.53994
vn -0.283883 -0.863397 0.417081
vn -0.069888 -0.897771 0.434883
vn -0.350649 -0.765186 0.53994
vn -0.459321 -0.751909 0.472923
vn -0.283883 -0.863397 0.417081
vn 0.161969 0.878519 0.449411
vn 0.157763 0.652017 0.74161
vn 0.2137 0.806077 0.55188
vn 0.161969 0.878519 0.449411
vn 0.2137 0.806077 0.55188
vn 0.184273 0.925073 0.33209
vn 0.0112445 0.949311 0.314136
vn 0.161969 0.878519 0.449411
vn 0.184273 0.925073 0.33209
vn 0.0112445 0.949311 0.314136
vn -0.0909468 0.933885 0.345816
vn 0.161969 0.878519 0.449411
vn -0.0909468 0.933885 0.345816
vn 0.0112445 0.949311 0.314136
vn -0.242392 0.899513 0.363487
vn -0.0909468 0.933884 0.345816
vn -0.242392 0.899513 0.363487
vn -0.219016 0.881275 0.418792
vn -0.242392 0.899513 0.363487
vn -0.294779 0.873854 0.386633
vn -0.219016 0.881275 0.418792
vn -0.242392 0.899513 0.363487
vn -0.342223 0.86724 0.361632
vn -0.294779 0.873854 0.386633
vt 0.974 0.931
vt 0.998 0.962
vt 0.998 0.932
vt 0.974 0.931
vt 0.972 0.962
vt 0.998 0.962
vt 0.948 0.962
vt 0.972 0.962
vt 0.974 0.931
vt 0.948 0.962
vt 0.974 0.931
vt 0.948 0.932
vt 0.948 0.932
vt 0.922 0.961
vt 0.948 0.962
vt 0.948 0.932
vt 0.922 0.932
vt 0.922 0.961
vt 0.922 0.961
vt 0.922 0.932
vt 0.894 0.937
vt 0.922 0.961
vt 0.894 0.937
vt 0.894 0.962
vt 0.983 0.997
vt 0.998 0.978
vt 0.997 0.997
vt 0.983 0.997
vt 0.978 0.979
vt 0.998 0.978
vt 0.963 0.996
vt 0.978 0.979
vt 0.983 0.997
vt 0.963 0.996
vt 0.956 0.982
vt 0.978 0.979
vt 0.926 0.996
vt 0.956 0.982
vt 0.963 0.996
vt 0.926 0.996
vt 0.924 0.984
vt 0.956 0.982
vt 0.893 0.996
vt 0.924 0.984
vt 0.926 0.996
vt 0.893 0.996
vt 0.893 0.963
vt 0.924 0.984
vt 0.924 0.984
vt 0.893 0.963
vt 0.92 0.964
vt 0.956 0.982
vt 0.924 0.984
vt 0.92 0.964
vt 0.956 0.982
vt 0.92 0.964
vt 0.951 0.964
vt 0.978 0.979
vt 0.956 0.982
vt 0.951 0.964
vt 0.978 0.979
vt 0.951 0.964
vt 0.977 0.963
vt 0.978 0.979
vt 0.977 0.963
vt 0.998 0.962
vt 0.978 0.979
vt 0.998 0.962
vt 0.998 0.978
vt 0.978 0.979
vt 0.998 0.978
vt 0.998 0.962
vt 0.978 0.979
vt 0.998 0.962
vt 0.977 0.963
vt 0.978 0.979
vt 0.977 0.963
vt 0.951 0.964
vt 0.978 0.979
vt 0.951 0.964
vt 0.956 0.982
vt 0.956 0.982
vt 0.951 0.964
vt 0.92 0.964
vt 0.956 0.982
vt 0.92 0.964
vt 0.924 0.984
vt 0.924 0.984
vt 0.92 0.964
vt 0.893 0.963
vt 0.893 0.996
vt 0.924 0.984
vt 0.893 0.963
vt 0.893 0.996
vt 0.926 0.996
vt 0.924 0.984
vt 0.926 0.996
vt 0.956 0.982
vt 0.924 0.984
vt 0.926 0.996
vt 0.963 0.996
vt 0.956 0.982
vt 0.963 0.996
vt 0.978 0.979
vt 0.956 0.982
vt 0.963 0.996
vt 0.983 0.997
vt 0.978 0.979
vt 0.983 0.997
vt 0.998 0.978
vt 0.978 0.979
vt 0.983 0.997
vt 0.997 0.997
vt 0.998 0.978
vt 0.922 0.961
vt 0.894 0.962
vt 0.894 0.937
vt 0.922 0.961
vt 0.894 0.937
vt 0.922 0.932
vt 0.948 0.932
vt 0.922 0.961
vt 0.922 0.932
vt 0.948 0.932
vt 0.948 0.962
vt 0.922 0.961
vt 0.948 0.962
vt 0.948 0.932
vt 0.974 0.931
vt 0.948 0.962
vt 0.974 0.931
vt 0.972 0.962
vt 0.974 0.931
vt 0.998 0.962
vt 0.972 0.962
vt 0.974 0.931
vt 0.998 0.932
vt 0.998 0.962
usemtl acmat_0
f 44/1/1 25/2/2 24/3/3
f 44/4/4 45/5/5 25/6/6
f 46/7/7 45/8/8 44/9/9
f 46/10/10 44/11/11 43/12/12
f 43/13/13 42/14/14 46/15/15
f 43/16/16 41/17/17 42/18/18
f 42/19/19 41/20/20 40/21/21
f 42/22/22 40/23/23 39/24/24
f 9/25/25 4/26/26 3/27/27
f 9/28/28 10/29/29 4/30/30
f 12/31/31 10/32/32 9/33/33
f 12/34/34 11/35/35 10/36/36
f 6/37/37 11/38/38 12/39/39
f 6/40/40 15/41/41 11/42/42
f 5/43/43 15/44/44 6/45/45
f 5/46/46 14/47/47 15/48/48
f 15/49/49 14/50/50 13/51/51
f 11/52/52 15/53/53 13/54/54
f 11/55/55 13/56/56 8/57/57
f 10/58/58 11/59/59 8/60/60
f 10/61/61 8/62/62 7/63/63
f 10/64/64 7/65/65 2/66/66
f 10/67/67 2/68/68 4/69/69
f 33/70/70 26/71/71 25/72/72
f 33/73/73 25/74/74 31/75/75
f 33/76/76 31/77/77 30/78/78
f 33/79/79 30/80/80 32/81/81
f 32/82/82 30/83/83 37/84/84
f 32/85/85 37/86/86 38/87/87
f 38/88/88 37/89/89 36/90/90
f 28/91/91 38/92/92 36/93/93
f 28/94/94 29/95/95 38/96/96
f 29/97/97 32/98/98 38/99/99
f 29/100/100 35/101/101 32/102/102
f 35/103/103 33/104/104 32/105/105
f 35/106/106 34/107/107 33/108/108
f 34/109/109 26/110/110 33/111/111
f 34/112/112 27/113/113 26/114/114
f 19/115/115 18/116/116 17/117/117
f 19/118/118 17/119/119 16/120/120
f 22/121/121 19/122/122 16/123/123
f 22/124/124 23/125/125 19/126/126
f 23/127/127 22/128/128 21/129/129
f 23/130/130 21/131/131 20/132/132
f 21/133/133 2/134/134 20/135/135
f 21/136/136 1/137/137 2/138/138
