mtllib avatar_eyelashes-Shear_Head.mtl
g g0
g g1_avatar_eyelashes
v 0.055306 1.76154 0.088881
v 0.054312 1.7646 0.085921
v 0.057807 1.7666 0.089872
v 0.056257 1.7653 0.088611
v 0.021666 1.77007 0.096881
v 0.033781 1.77435 0.103334
v 0.050899 1.76771 0.090122
v 0.043608 1.77098 0.09581
v 0.05503 1.7708 0.094795
v 0.053056 1.769 0.093404
v 0.046074 1.77198 0.099316
v 0.048403 1.77438 0.100843
v 0.032128 1.77094 0.096176
v 0.022646 1.76711 0.093095
v 0.033093 1.77216 0.101249
v 0.032832 1.75672 0.098222
v 0.019961 1.76217 0.093156
v 0.019756 1.76279 0.091103
v 0.03288 1.76018 0.095992
v 0.049963 1.76139 0.090761
v 0.051305 1.75851 0.09246
v 0.043855 1.75601 0.096541
v 0.043719 1.75936 0.094452
v -0.055306 1.75577 0.088341
v -0.054312 1.7592 0.085921
v -0.056257 1.75985 0.088611
v -0.057807 1.76134 0.089872
v -0.021666 1.76241 0.096881
v -0.033781 1.7667 0.103334
v -0.043608 1.76289 0.09581
v -0.050899 1.76116 0.090122
v -0.046074 1.76433 0.099316
v -0.053056 1.76135 0.093404
v -0.05503 1.76315 0.094795
v -0.048403 1.76673 0.100843
v -0.022646 1.76204 0.093095
v -0.032128 1.76293 0.096176
v -0.033093 1.76451 0.101249
v -0.019756 1.75869 0.091103
v -0.019961 1.75524 0.093156
v -0.032832 1.74979 0.098222
v -0.03288 1.75204 0.095992
v -0.043855 1.74908 0.096541
v -0.051305 1.75159 0.09246
v -0.049963 1.75468 0.090761
v -0.043719 1.75164 0.094452
vn -0.22157 0.581612 0.78271
vn -0.233368 0.579037 0.781188
vn -0.17504 0.600959 0.779878
vn -0.22157 0.581612 0.78271
vn -0.254076 0.548392 0.796688
vn -0.233368 0.579037 0.781188
vn -0.183956 0.60029 0.778339
vn -0.254076 0.548392 0.796688
vn -0.22157 0.581612 0.78271
vn -0.183956 0.60029 0.778339
vn -0.22157 0.581612 0.78271
vn -0.162178 0.651038 0.741518
vn -0.162178 0.651038 0.741518
vn -0.0603759 0.639716 0.766237
vn -0.183956 0.60029 0.77834
vn -0.162178 0.651038 0.741518
vn -0.0853708 0.700442 0.708585
vn -0.0603759 0.639716 0.766237
vn -0.0603759 0.639716 0.766237
vn -0.0853708 0.700442 0.708585
vn 0.0224699 0.61076 0.791497
vn -0.0603759 0.639716 0.766237
vn 0.0224699 0.61076 0.791497
vn 0.0629051 0.507599 0.859294
vn 0.152232 -0.729114 0.667246
vn -0.0196003 -0.789058 0.614006
vn 0.0731576 -0.737971 0.670855
vn 0.152232 -0.729114 0.667246
vn -0.00749178 -0.840035 0.54248
vn -0.0196003 -0.789058 0.614006
vn 0.203738 -0.68269 0.70173
vn -0.00749178 -0.840035 0.54248
vn 0.152232 -0.729115 0.667246
vn 0.203738 -0.68269 0.70173
vn 0.0740367 -0.850683 0.520439
vn -0.00749178 -0.840035 0.54248
vn 0.0218674 -0.664908 0.746605
vn 0.0740367 -0.850683 0.520439
vn 0.203738 -0.68269 0.70173
vn 0.0218674 -0.664908 0.746605
vn 0.0406584 -0.856307 0.514864
vn 0.0740367 -0.850683 0.520439
vn -0.124337 -0.728374 0.673804
vn 0.0406584 -0.856307 0.514864
vn 0.0218674 -0.664908 0.746605
vn -0.124337 -0.728374 0.673804
vn 0.125934 -0.907511 0.400705
vn 0.0406584 -0.856307 0.514864
vn 0.0406584 -0.856307 0.514864
vn 0.125934 -0.907511 0.400705
vn 0.12016 -0.967538 0.222331
vn 0.0740367 -0.850683 0.520439
vn 0.0406584 -0.856307 0.514864
vn 0.12016 -0.967538 0.222331
vn 0.0740367 -0.850683 0.520439
vn 0.12016 -0.967538 0.222331
vn -0.0607282 -0.937869 0.341633
vn -0.00749178 -0.840035 0.54248
vn 0.0740367 -0.850683 0.520439
vn -0.0607282 -0.937869 0.341633
vn -0.00749177 -0.840035 0.54248
vn -0.0607282 -0.937869 0.341633
vn -0.144302 -0.88498 0.442704
vn -0.00749178 -0.840035 0.54248
vn -0.144302 -0.88498 0.442704
vn -0.256619 -0.85136 0.457528
vn -0.00749178 -0.840035 0.54248
vn -0.256619 -0.85136 0.457528
vn -0.0196003 -0.789058 0.614006
vn -0.0549185 -0.901563 0.429149
vn -0.233327 -0.871798 0.430727
vn 0.156076 -0.95598 0.248481
vn -0.0549185 -0.901563 0.429149
vn 0.156076 -0.95598 0.248481
vn 0.193552 -0.963869 0.183012
vn -0.0549185 -0.901563 0.429149
vn 0.193552 -0.963869 0.183012
vn 0.0542418 -0.94934 0.309535
vn -0.0549185 -0.901563 0.429149
vn 0.0542418 -0.94934 0.309535
vn -0.0851196 -0.827771 0.554572
vn -0.0851196 -0.827771 0.554572
vn 0.0542418 -0.94934 0.309535
vn -0.0104996 -0.94666 0.322062
vn -0.0851196 -0.827771 0.554572
vn -0.0104996 -0.94666 0.322062
vn -0.0181088 -0.890732 0.454168
vn -0.0181088 -0.890732 0.454168
vn -0.0104996 -0.94666 0.322062
vn -0.0621182 -0.974502 0.21561
vn 0.0171431 -0.882871 0.469303
vn -0.0181088 -0.890732 0.454168
vn -0.0621182 -0.974502 0.21561
vn 0.0171431 -0.882871 0.469303
vn -0.0220699 -0.66494 0.74657
vn -0.0181088 -0.890732 0.454168
vn -0.0220699 -0.66494 0.74657
vn -0.0851196 -0.827771 0.554572
vn -0.0181088 -0.890732 0.454168
vn -0.0220699 -0.66494 0.74657
vn -0.203738 -0.68269 0.70173
vn -0.0851196 -0.827771 0.554572
vn -0.203738 -0.68269 0.70173
vn -0.0549185 -0.901563 0.429149
vn -0.0851196 -0.827771 0.554572
vn -0.203738 -0.68269 0.70173
vn -0.312869 -0.77396 0.550544
vn -0.0549185 -0.901563 0.429149
vn -0.312869 -0.77396 0.550544
vn -0.233327 -0.871798 0.430727
vn -0.0549185 -0.901563 0.429149
vn -0.312869 -0.77396 0.550544
vn -0.359393 -0.791808 0.493839
vn -0.233327 -0.871798 0.430727
vn 0.0804742 0.67449 0.733885
vn 0.085767 0.956108 0.280181
vn -0.0077721 0.80157 0.59785
vn 0.0804742 0.67449 0.733885
vn -0.0077721 0.80157 0.59785
vn 0.0306247 0.54118 0.840349
vn 0.197157 0.526564 0.826958
vn 0.0804742 0.67449 0.733885
vn 0.0306247 0.54118 0.840349
vn 0.197157 0.526564 0.826958
vn 0.232742 0.542217 0.807361
vn 0.0804742 0.67449 0.733885
vn 0.232742 0.542217 0.807361
vn 0.197157 0.526564 0.826958
vn 0.24999 0.604118 0.756668
vn 0.232742 0.542217 0.807361
vn 0.24999 0.604118 0.756668
vn 0.315262 0.586869 0.745784
vn 0.24999 0.604118 0.756668
vn 0.229266 0.657467 0.717756
vn 0.315262 0.586869 0.745784
vn 0.24999 0.604118 0.756668
vn 0.091085 0.707505 0.700814
vn 0.229266 0.657467 0.717756
vt 0.974 0.931
vt 0.998 0.962
vt 0.998 0.932
vt 0.974 0.931
vt 0.972 0.962
vt 0.998 0.962
vt 0.948 0.962
vt 0.972 0.962
vt 0.974 0.931
vt 0.948 0.962
vt 0.974 0.931
vt 0.948 0.932
vt 0.948 0.932
vt 0.922 0.961
vt 0.948 0.962
vt 0.948 0.932
vt 0.922 0.932
vt 0.922 0.961
vt 0.922 0.961
vt 0.922 0.932
vt 0.894 0.937
vt 0.922 0.961
vt 0.894 0.937
vt 0.894 0.962
vt 0.983 0.997
vt 0.998 0.978
vt 0.997 0.997
vt 0.983 0.997
vt 0.978 0.979
vt 0.998 0.978
vt 0.963 0.996
vt 0.978 0.979
vt 0.983 0.997
vt 0.963 0.996
vt 0.956 0.982
vt 0.978 0.979
vt 0.926 0.996
vt 0.956 0.982
vt 0.963 0.996
vt 0.926 0.996
vt 0.924 0.984
vt 0.956 0.982
vt 0.893 0.996
vt 0.924 0.984
vt 0.926 0.996
vt 0.893 0.996
vt 0.893 0.963
vt 0.924 0.984
vt 0.924 0.984
vt 0.893 0.963
vt 0.92 0.964
vt 0.956 0.982
vt 0.924 0.984
vt 0.92 0.964
vt 0.956 0.982
vt 0.92 0.964
vt 0.951 0.964
vt 0.978 0.979
vt 0.956 0.982
vt 0.951 0.964
vt 0.978 0.979
vt 0.951 0.964
vt 0.977 0.963
vt 0.978 0.979
vt 0.977 0.963
vt 0.998 0.962
vt 0.978 0.979
vt 0.998 0.962
vt 0.998 0.978
vt 0.978 0.979
vt 0.998 0.978
vt 0.998 0.962
vt 0.978 0.979
vt 0.998 0.962
vt 0.977 0.963
vt 0.978 0.979
vt 0.977 0.963
vt 0.951 0.964
vt 0.978 0.979
vt 0.951 0.964
vt 0.956 0.982
vt 0.956 0.982
vt 0.951 0.964
vt 0.92 0.964
vt 0.956 0.982
vt 0.92 0.964
vt 0.924 0.984
vt 0.924 0.984
vt 0.92 0.964
vt 0.893 0.963
vt 0.893 0.996
vt 0.924 0.984
vt 0.893 0.963
vt 0.893 0.996
vt 0.926 0.996
vt 0.924 0.984
vt 0.926 0.996
vt 0.956 0.982
vt 0.924 0.984
vt 0.926 0.996
vt 0.963 0.996
vt 0.956 0.982
vt 0.963 0.996
vt 0.978 0.979
vt 0.956 0.982
vt 0.963 0.996
vt 0.983 0.997
vt 0.978 0.979
vt 0.983 0.997
vt 0.998 0.978
vt 0.978 0.979
vt 0.983 0.997
vt 0.997 0.997
vt 0.998 0.978
vt 0.922 0.961
vt 0.894 0.962
vt 0.894 0.937
vt 0.922 0.961
vt 0.894 0.937
vt 0.922 0.932
vt 0.948 0.932
vt 0.922 0.961
vt 0.922 0.932
vt 0.948 0.932
vt 0.948 0.962
vt 0.922 0.961
vt 0.948 0.962
vt 0.948 0.932
vt 0.974 0.931
vt 0.948 0.962
vt 0.974 0.931
vt 0.972 0.962
vt 0.974 0.931
vt 0.998 0.962
vt 0.972 0.962
vt 0.974 0.931
vt 0.998 0.932
vt 0.998 0.962
usemtl acmat_0
f 44/1/1 25/2/2 24/3/3
f 44/4/4 45/5/5 25/6/6
f 46/7/7 45/8/8 44/9/9
f 46/10/10 44/11/11 43/12/12
f 43/13/13 42/14/14 46/15/15
f 43/16/16 41/17/17 42/18/18
f 42/19/19 41/20/20 40/21/21
f 42/22/22 40/23/23 39/24/24
f 9/25/25 4/26/26 3/27/27
f 9/28/28 10/29/29 4/30/30
f 12/31/31 10/32/32 9/33/33
f 12/34/34 11/35/35 10/36/36
f 6/37/37 11/38/38 12/39/39
f 6/40/40 15/41/41 11/42/42
f 5/43/43 15/44/44 6/45/45
f 5/46/46 14/47/47 15/48/48
f 15/49/49 14/50/50 13/51/51
f 11/52/52 15/53/53 13/54/54
f 11/55/55 13/56/56 8/57/57
f 10/58/58 11/59/59 8/60/60
f 10/61/61 8/62/62 7/63/63
f 10/64/64 7/65/65 2/66/66
f 10/67/67 2/68/68 4/69/69
f 33/70/70 26/71/71 25/72/72
f 33/73/73 25/74/74 31/75/75
f 33/76/76 31/77/77 30/78/78
f 33/79/79 30/80/80 32/81/81
f 32/82/82 30/83/83 37/84/84
f 32/85/85 37/86/86 38/87/87
f 38/88/88 37/89/89 36/90/90
f 28/91/91 38/92/92 36/93/93
f 28/94/94 29/95/95 38/96/96
f 29/97/97 32/98/98 38/99/99
f 29/100/100 35/101/101 32/102/102
f 35/103/103 33/104/104 32/105/105
f 35/106/106 34/107/107 33/108/108
f 34/109/109 26/110/110 33/111/111
f 34/112/112 27/113/113 26/114/114
f 19/115/115 18/116/116 17/117/117
f 19/118/118 17/119/119 16/120/120
f 22/121/121 19/122/122 16/123/123
f 22/124/124 23/125/125 19/126/126
f 23/127/127 22/128/128 21/129/129
f 23/130/130 21/131/131 20/132/132
f 21/133/133 2/134/134 20/135/135
f 21/136/136 1/137/137 2/138/138
