mtllib avatar_eyelashes-Express_Smile.mtl
g g0
g g1_avatar_eyelashes
v 0.055306 1.75988 0.088341
v 0.054312 1.76117 0.085625
v 0.057807 1.76349 0.089872
v 0.056257 1.76174 0.088611
v 0.021666 1.76365 0.096265
v 0.033781 1.76701 0.103246
v 0.050899 1.76194 0.08924
v 0.043608 1.76356 0.093532
v 0.05503 1.76467 0.0943
v 0.053056 1.76308 0.092675
v 0.046074 1.76522 0.098941
v 0.048403 1.76738 0.100783
v 0.032128 1.76365 0.095661
v 0.022306 1.76335 0.091177
v 0.033093 1.76513 0.10088
v 0.032784 1.75562 0.098914
v 0.019961 1.75877 0.093156
v 0.019756 1.76036 0.090807
v 0.03288 1.75734 0.094693
v 0.049963 1.75757 0.08953
v 0.051329 1.75685 0.093236
v 0.043839 1.75483 0.097505
v 0.043688 1.75713 0.093355
v -0.055306 1.75988 0.088341
v -0.054312 1.76117 0.085625
v -0.056257 1.76174 0.088611
v -0.057807 1.76349 0.089872
v -0.021666 1.76365 0.096265
v -0.033781 1.76701 0.103246
v -0.043608 1.76356 0.093532
v -0.050899 1.76194 0.08924
v -0.046074 1.76522 0.098941
v -0.053056 1.76308 0.092675
v -0.05503 1.76467 0.0943
v -0.048403 1.76738 0.100783
v -0.022306 1.76335 0.091177
v -0.032128 1.76365 0.095661
v -0.033093 1.76513 0.10088
v -0.019756 1.76036 0.090807
v -0.019961 1.75877 0.093156
v -0.032784 1.75562 0.098914
v -0.03288 1.75734 0.094693
v -0.043839 1.75483 0.097505
v -0.051329 1.75685 0.093236
v -0.049963 1.75757 0.08953
v -0.043688 1.75713 0.093355
vn 0.1148 0.922219 0.369233
vn 0.266597 0.87932 0.394617
vn 0.107789 0.882151 0.458465
vn 0.1148 0.922219 0.369233
vn 0.195511 0.946701 0.255994
vn 0.266597 0.87932 0.394617
vn -0.0522584 0.921433 0.385007
vn 0.195511 0.946701 0.255994
vn 0.1148 0.922219 0.369233
vn -0.0522584 0.921433 0.385007
vn 0.1148 0.922219 0.369233
vn -0.0767665 0.890705 0.448054
vn -0.0767665 0.890705 0.448054
vn -0.0685069 0.890073 0.450641
vn -0.0522584 0.921433 0.385007
vn -0.0767665 0.890705 0.448054
vn -0.0855768 0.921992 0.377635
vn -0.0685069 0.890073 0.450641
vn -0.0685069 0.890073 0.450641
vn -0.0855768 0.921992 0.377635
vn -0.0415228 0.881219 0.470881
vn -0.0685069 0.890073 0.450641
vn -0.0415228 0.881219 0.470881
vn -0.0252628 0.828881 0.558855
vn 0.31049 -0.802786 0.509048
vn 0.217584 -0.880906 0.420311
vn 0.452578 -0.749261 0.483509
vn 0.31049 -0.802786 0.509048
vn 0.0997978 -0.910766 0.400682
vn 0.217584 -0.880906 0.420311
vn 0.20332 -0.773389 0.600441
vn 0.0997978 -0.910766 0.400682
vn 0.31049 -0.802786 0.509048
vn 0.20332 -0.773389 0.600441
vn 0.0970549 -0.88282 0.459574
vn 0.0997978 -0.910766 0.400682
vn 0.0221009 -0.76188 0.647341
vn 0.0970549 -0.88282 0.459574
vn 0.20332 -0.773389 0.600441
vn 0.0221009 -0.76188 0.647341
vn -0.00492491 -0.92194 0.387302
vn 0.0970549 -0.88282 0.459574
vn -0.0332239 -0.92485 0.378879
vn -0.00492491 -0.92194 0.387302
vn 0.0221009 -0.76188 0.647341
vn -0.0332239 -0.92485 0.378879
vn -0.00151582 -0.983284 0.182071
vn -0.00492491 -0.92194 0.387302
vn -0.00492491 -0.92194 0.387302
vn -0.00151582 -0.983284 0.182071
vn -0.00440119 -0.960899 0.276864
vn 0.0970549 -0.88282 0.459574
vn -0.00492491 -0.92194 0.387302
vn -0.00440119 -0.960899 0.276864
vn 0.0970549 -0.88282 0.459574
vn -0.00440119 -0.960899 0.276864
vn 0.00130874 -0.953622 0.301005
vn 0.0997978 -0.910766 0.400682
vn 0.0970549 -0.88282 0.459574
vn 0.00130874 -0.953622 0.301005
vn 0.0997978 -0.910766 0.400682
vn 0.00130874 -0.953622 0.301005
vn 0.0270506 -0.953704 0.299526
vn 0.0997978 -0.910766 0.400682
vn 0.0270506 -0.953704 0.299526
vn -0.0103269 -0.965617 0.259763
vn 0.0997978 -0.910766 0.400682
vn -0.0103269 -0.965617 0.259763
vn 0.217584 -0.880906 0.420311
vn -0.0997978 -0.910766 0.400682
vn -0.217584 -0.880906 0.420311
vn 0.0103269 -0.965617 0.259763
vn -0.0997978 -0.910766 0.400682
vn 0.0103269 -0.965617 0.259763
vn -0.0270506 -0.953704 0.299526
vn -0.0997978 -0.910766 0.400682
vn -0.0270506 -0.953704 0.299526
vn -0.00130874 -0.953622 0.301005
vn -0.0997978 -0.910766 0.400682
vn -0.00130874 -0.953622 0.301005
vn -0.0970549 -0.88282 0.459574
vn -0.0970549 -0.88282 0.459574
vn -0.00130874 -0.953622 0.301005
vn 0.00440119 -0.960899 0.276864
vn -0.0970549 -0.88282 0.459574
vn 0.00440119 -0.960899 0.276864
vn 0.00492491 -0.92194 0.387302
vn 0.00492491 -0.92194 0.387302
vn 0.00440119 -0.960899 0.276864
vn 0.00151582 -0.983284 0.182071
vn 0.0332239 -0.92485 0.378879
vn 0.00492491 -0.92194 0.387302
vn 0.00151582 -0.983284 0.182071
vn 0.0332239 -0.92485 0.378879
vn -0.0221009 -0.76188 0.647341
vn 0.00492491 -0.92194 0.387302
vn -0.0221009 -0.76188 0.647341
vn -0.0970549 -0.88282 0.459574
vn 0.00492491 -0.92194 0.387302
vn -0.0221009 -0.76188 0.647341
vn -0.20332 -0.773389 0.600441
vn -0.0970549 -0.88282 0.459574
vn -0.20332 -0.773389 0.600441
vn -0.0997978 -0.910766 0.400682
vn -0.0970549 -0.88282 0.459574
vn -0.20332 -0.773389 0.600441
vn -0.31049 -0.802786 0.509048
vn -0.0997978 -0.910766 0.400682
vn -0.31049 -0.802786 0.509048
vn -0.217584 -0.880906 0.420311
vn -0.0997978 -0.910766 0.400682
vn -0.31049 -0.802786 0.509048
vn -0.452578 -0.749261 0.483509
vn -0.217584 -0.880906 0.420311
vn 0.0685069 0.890073 0.450641
vn 0.0252628 0.828881 0.558855
vn 0.0415228 0.881219 0.470881
vn 0.0685069 0.890073 0.450641
vn 0.0415228 0.881219 0.470881
vn 0.0855768 0.921992 0.377635
vn 0.0767665 0.890705 0.448054
vn 0.0685069 0.890073 0.450641
vn 0.0855768 0.921992 0.377635
vn 0.0767665 0.890705 0.448054
vn 0.0522584 0.921433 0.385007
vn 0.0685069 0.890073 0.450641
vn 0.0522584 0.921433 0.385007
vn 0.0767665 0.890705 0.448054
vn -0.1148 0.922219 0.369233
vn 0.0522584 0.921433 0.385007
vn -0.1148 0.922219 0.369233
vn -0.195511 0.946701 0.255994
vn -0.1148 0.922219 0.369233
vn -0.266597 0.87932 0.394617
vn -0.195511 0.946701 0.255994
vn -0.1148 0.922219 0.369233
vn -0.107789 0.882151 0.458465
vn -0.266597 0.87932 0.394617
vt 0.974 0.931
vt 0.998 0.962
vt 0.998 0.932
vt 0.974 0.931
vt 0.972 0.962
vt 0.998 0.962
vt 0.948 0.962
vt 0.972 0.962
vt 0.974 0.931
vt 0.948 0.962
vt 0.974 0.931
vt 0.948 0.932
vt 0.948 0.932
vt 0.922 0.961
vt 0.948 0.962
vt 0.948 0.932
vt 0.922 0.932
vt 0.922 0.961
vt 0.922 0.961
vt 0.922 0.932
vt 0.894 0.937
vt 0.922 0.961
vt 0.894 0.937
vt 0.894 0.962
vt 0.983 0.997
vt 0.998 0.978
vt 0.997 0.997
vt 0.983 0.997
vt 0.978 0.979
vt 0.998 0.978
vt 0.963 0.996
vt 0.978 0.979
vt 0.983 0.997
vt 0.963 0.996
vt 0.956 0.982
vt 0.978 0.979
vt 0.926 0.996
vt 0.956 0.982
vt 0.963 0.996
vt 0.926 0.996
vt 0.924 0.984
vt 0.956 0.982
vt 0.893 0.996
vt 0.924 0.984
vt 0.926 0.996
vt 0.893 0.996
vt 0.893 0.963
vt 0.924 0.984
vt 0.924 0.984
vt 0.893 0.963
vt 0.92 0.964
vt 0.956 0.982
vt 0.924 0.984
vt 0.92 0.964
vt 0.956 0.982
vt 0.92 0.964
vt 0.951 0.964
vt 0.978 0.979
vt 0.956 0.982
vt 0.951 0.964
vt 0.978 0.979
vt 0.951 0.964
vt 0.977 0.963
vt 0.978 0.979
vt 0.977 0.963
vt 0.998 0.962
vt 0.978 0.979
vt 0.998 0.962
vt 0.998 0.978
vt 0.978 0.979
vt 0.998 0.978
vt 0.998 0.962
vt 0.978 0.979
vt 0.998 0.962
vt 0.977 0.963
vt 0.978 0.979
vt 0.977 0.963
vt 0.951 0.964
vt 0.978 0.979
vt 0.951 0.964
vt 0.956 0.982
vt 0.956 0.982
vt 0.951 0.964
vt 0.92 0.964
vt 0.956 0.982
vt 0.92 0.964
vt 0.924 0.984
vt 0.924 0.984
vt 0.92 0.964
vt 0.893 0.963
vt 0.893 0.996
vt 0.924 0.984
vt 0.893 0.963
vt 0.893 0.996
vt 0.926 0.996
vt 0.924 0.984
vt 0.926 0.996
vt 0.956 0.982
vt 0.924 0.984
vt 0.926 0.996
vt 0.963 0.996
vt 0.956 0.982
vt 0.963 0.996
vt 0.978 0.979
vt 0.956 0.982
vt 0.963 0.996
vt 0.983 0.997
vt 0.978 0.979
vt 0.983 0.997
vt 0.998 0.978
vt 0.978 0.979
vt 0.983 0.997
vt 0.997 0.997
vt 0.998 0.978
vt 0.922 0.961
vt 0.894 0.962
vt 0.894 0.937
vt 0.922 0.961
vt 0.894 0.937
vt 0.922 0.932
vt 0.948 0.932
vt 0.922 0.961
vt 0.922 0.932
vt 0.948 0.932
vt 0.948 0.962
vt 0.922 0.961
vt 0.948 0.962
vt 0.948 0.932
vt 0.974 0.931
vt 0.948 0.962
vt 0.974 0.931
vt 0.972 0.962
vt 0.974 0.931
vt 0.998 0.962
vt 0.972 0.962
vt 0.974 0.931
vt 0.998 0.932
vt 0.998 0.962
usemtl acmat_0
f 44/1/1 25/2/2 24/3/3
f 44/4/4 45/5/5 25/6/6
f 46/7/7 45/8/8 44/9/9
f 46/10/10 44/11/11 43/12/12
f 43/13/13 42/14/14 46/15/15
f 43/16/16 41/17/17 42/18/18
f 42/19/19 41/20/20 40/21/21
f 42/22/22 40/23/23 39/24/24
f 9/25/25 4/26/26 3/27/27
f 9/28/28 10/29/29 4/30/30
f 12/31/31 10/32/32 9/33/33
f 12/34/34 11/35/35 10/36/36
f 6/37/37 11/38/38 12/39/39
f 6/40/40 15/41/41 11/42/42
f 5/43/43 15/44/44 6/45/45
f 5/46/46 14/47/47 15/48/48
f 15/49/49 14/50/50 13/51/51
f 11/52/52 15/53/53 13/54/54
f 11/55/55 13/56/56 8/57/57
f 10/58/58 11/59/59 8/60/60
f 10/61/61 8/62/62 7/63/63
f 10/64/64 7/65/65 2/66/66
f 10/67/67 2/68/68 4/69/69
f 33/70/70 26/71/71 25/72/72
f 33/73/73 25/74/74 31/75/75
f 33/76/76 31/77/77 30/78/78
f 33/79/79 30/80/80 32/81/81
f 32/82/82 30/83/83 37/84/84
f 32/85/85 37/86/86 38/87/87
f 38/88/88 37/89/89 36/90/90
f 28/91/91 38/92/92 36/93/93
f 28/94/94 29/95/95 38/96/96
f 29/97/97 32/98/98 38/99/99
f 29/100/100 35/101/101 32/102/102
f 35/103/103 33/104/104 32/105/105
f 35/106/106 34/107/107 33/108/108
f 34/109/109 26/110/110 33/111/111
f 34/112/112 27/113/113 26/114/114
f 19/115/115 18/116/116 17/117/117
f 19/118/118 17/119/119 16/120/120
f 22/121/121 19/122/122 16/123/123
f 22/124/124 23/125/125 19/126/126
f 23/127/127 22/128/128 21/129/129
f 23/130/130 21/131/131 20/132/132
f 21/133/133 2/134/134 20/135/135
f 21/136/136 1/137/137 2/138/138
