mtllib avatar_eyelashes-Egg_Head.mtl
g g0
g g1_avatar_eyelashes
v 0.055306 1.75935 0.088341
v 0.054312 1.76158 0.087648
v 0.057807 1.76401 0.089872
v 0.056257 1.76227 0.088611
v 0.021666 1.76677 0.099743
v 0.033781 1.77159 0.107318
v 0.050899 1.76425 0.090262
v 0.043608 1.76657 0.09601
v 0.05503 1.76736 0.097737
v 0.053056 1.76544 0.095948
v 0.046074 1.76889 0.102651
v 0.048403 1.77144 0.104735
v 0.032128 1.76829 0.096835
v 0.022646 1.7647 0.095491
v 0.033093 1.76921 0.10469
v 0.032832 1.75403 0.098536
v 0.019961 1.75922 0.094498
v 0.019756 1.76069 0.092713
v 0.03288 1.75625 0.096759
v 0.049963 1.75792 0.091848
v 0.051305 1.75546 0.093078
v 0.043855 1.7532 0.096699
v 0.043719 1.75555 0.095084
v -0.055306 1.75935 0.088341
v -0.054312 1.76158 0.087648
v -0.056257 1.76227 0.088611
v -0.057807 1.76401 0.089872
v -0.021666 1.76677 0.099743
v -0.033781 1.77159 0.107318
v -0.043608 1.76657 0.09601
v -0.050899 1.76425 0.090262
v -0.046074 1.76889 0.102651
v -0.053056 1.76544 0.095948
v -0.05503 1.76736 0.097737
v -0.048403 1.77144 0.104735
v -0.022646 1.7647 0.095491
v -0.032128 1.76829 0.096835
v -0.033093 1.76921 0.10469
v -0.019756 1.76069 0.092713
v -0.019961 1.75922 0.094498
v -0.032832 1.75403 0.098536
v -0.03288 1.75625 0.096759
v -0.043855 1.7532 0.096699
v -0.051305 1.75546 0.093078
v -0.049963 1.75792 0.091848
v -0.043719 1.75555 0.095084
vn -0.30232 0.525405 0.795331
vn -0.382602 0.500858 0.776374
vn -0.469005 0.445952 0.762339
vn -0.30232 0.525405 0.795331
vn -0.257565 0.540861 0.800705
vn -0.382602 0.500858 0.776374
vn -0.200742 0.552639 0.808884
vn -0.257565 0.540861 0.800705
vn -0.30232 0.525405 0.795331
vn -0.200742 0.552639 0.808884
vn -0.30232 0.525405 0.795331
vn -0.184753 0.580272 0.79319
vn -0.184753 0.580272 0.79319
vn -0.103519 0.649375 0.75339
vn -0.200742 0.552639 0.808884
vn -0.184753 0.580272 0.79319
vn -0.0911035 0.621104 0.778415
vn -0.103519 0.649375 0.75339
vn -0.103519 0.649375 0.75339
vn -0.0911035 0.621104 0.778415
vn -0.0375978 0.703687 0.709515
vn -0.103519 0.649375 0.75339
vn -0.0375978 0.703687 0.709515
vn -0.0677424 0.773968 0.629591
vn 0.326094 -0.779414 0.534954
vn 0.300879 -0.82728 0.474426
vn 0.452949 -0.751324 0.479948
vn 0.326094 -0.779414 0.534954
vn 0.0345159 -0.884937 0.464431
vn 0.300879 -0.82728 0.474426
vn 0.181628 -0.732637 0.655937
vn 0.0345159 -0.884937 0.464431
vn 0.326094 -0.779414 0.534954
vn 0.181628 -0.732637 0.655937
vn 0.0378822 -0.869318 0.492799
vn 0.0345159 -0.884937 0.464431
vn 0.020026 -0.723705 0.689819
vn 0.0378822 -0.869318 0.492799
vn 0.181628 -0.732637 0.655937
vn 0.020026 -0.723705 0.689819
vn 0.059616 -0.907727 0.415304
vn 0.0378822 -0.869318 0.492799
vn -0.0718525 -0.818666 0.569756
vn 0.059616 -0.907727 0.415304
vn 0.020026 -0.723705 0.689819
vn -0.0718525 -0.818666 0.569756
vn 0.179442 -0.948457 0.261207
vn 0.059616 -0.907727 0.415304
vn 0.059616 -0.907727 0.415304
vn 0.179442 -0.948457 0.261207
vn 0.0777202 -0.979025 0.188331
vn 0.0378822 -0.869318 0.492799
vn 0.059616 -0.907727 0.415304
vn 0.0777202 -0.979025 0.188331
vn 0.0378822 -0.869318 0.492799
vn 0.0777202 -0.979025 0.188331
vn -0.111575 -0.939179 0.324799
vn 0.0345159 -0.884937 0.464431
vn 0.0378822 -0.869318 0.492799
vn -0.111575 -0.939179 0.324799
vn 0.0345159 -0.884937 0.464431
vn -0.111575 -0.939179 0.324799
vn -0.265093 -0.918684 0.292823
vn 0.0345159 -0.884937 0.464431
vn -0.265093 -0.918684 0.292823
vn -0.158378 -0.904243 0.396561
vn 0.0345159 -0.884937 0.464431
vn -0.158378 -0.904243 0.396561
vn 0.300879 -0.82728 0.474426
vn -0.0345159 -0.884937 0.464431
vn -0.300879 -0.82728 0.474426
vn 0.158378 -0.904243 0.396561
vn -0.0345159 -0.884937 0.464431
vn 0.158378 -0.904243 0.396561
vn 0.265093 -0.918684 0.292823
vn -0.0345159 -0.884937 0.464431
vn 0.265093 -0.918684 0.292823
vn 0.111575 -0.939179 0.324799
vn -0.0345159 -0.884937 0.464431
vn 0.111575 -0.939179 0.324799
vn -0.0378822 -0.869318 0.492799
vn -0.0378822 -0.869318 0.492799
vn 0.111575 -0.939179 0.324799
vn -0.0777202 -0.979025 0.188331
vn -0.0378822 -0.869318 0.492799
vn -0.0777202 -0.979025 0.188331
vn -0.059616 -0.907727 0.415304
vn -0.059616 -0.907727 0.415304
vn -0.0777202 -0.979025 0.188331
vn -0.179442 -0.948457 0.261207
vn 0.0718525 -0.818666 0.569756
vn -0.059616 -0.907727 0.415304
vn -0.179442 -0.948457 0.261207
vn 0.0718525 -0.818666 0.569756
vn -0.020026 -0.723705 0.689819
vn -0.059616 -0.907727 0.415304
vn -0.020026 -0.723705 0.689819
vn -0.0378822 -0.869318 0.492799
vn -0.059616 -0.907727 0.415304
vn -0.020026 -0.723705 0.689819
vn -0.181628 -0.732637 0.655937
vn -0.0378822 -0.869318 0.492799
vn -0.181628 -0.732637 0.655937
vn -0.0345159 -0.884937 0.464431
vn -0.0378822 -0.869318 0.492799
vn -0.181628 -0.732637 0.655937
vn -0.326094 -0.779414 0.534954
vn -0.0345159 -0.884937 0.464431
vn -0.326094 -0.779414 0.534954
vn -0.300879 -0.82728 0.474426
vn -0.0345159 -0.884937 0.464431
vn -0.326094 -0.779414 0.534954
vn -0.452949 -0.751324 0.479948
vn -0.300879 -0.82728 0.474426
vn 0.103519 0.649375 0.75339
vn 0.0677424 0.773968 0.629591
vn 0.0375978 0.703687 0.709515
vn 0.103519 0.649375 0.75339
vn 0.0375978 0.703687 0.709515
vn 0.0911035 0.621104 0.778415
vn 0.184753 0.580272 0.79319
vn 0.103519 0.649375 0.75339
vn 0.0911035 0.621104 0.778415
vn 0.184753 0.580272 0.79319
vn 0.200742 0.552639 0.808884
vn 0.103519 0.649375 0.75339
vn 0.200742 0.552639 0.808884
vn 0.184753 0.580272 0.79319
vn 0.30232 0.525405 0.795331
vn 0.200742 0.552639 0.808884
vn 0.30232 0.525405 0.795331
vn 0.257565 0.540861 0.800705
vn 0.30232 0.525405 0.795331
vn 0.382602 0.500858 0.776374
vn 0.257565 0.540861 0.800705
vn 0.30232 0.525405 0.795331
vn 0.469005 0.445952 0.762339
vn 0.382602 0.500858 0.776374
vt 0.974 0.931
vt 0.998 0.962
vt 0.998 0.932
vt 0.974 0.931
vt 0.972 0.962
vt 0.998 0.962
vt 0.948 0.962
vt 0.972 0.962
vt 0.974 0.931
vt 0.948 0.962
vt 0.974 0.931
vt 0.948 0.932
vt 0.948 0.932
vt 0.922 0.961
vt 0.948 0.962
vt 0.948 0.932
vt 0.922 0.932
vt 0.922 0.961
vt 0.922 0.961
vt 0.922 0.932
vt 0.894 0.937
vt 0.922 0.961
vt 0.894 0.937
vt 0.894 0.962
vt 0.983 0.997
vt 0.998 0.978
vt 0.997 0.997
vt 0.983 0.997
vt 0.978 0.979
vt 0.998 0.978
vt 0.963 0.996
vt 0.978 0.979
vt 0.983 0.997
vt 0.963 0.996
vt 0.956 0.982
vt 0.978 0.979
vt 0.926 0.996
vt 0.956 0.982
vt 0.963 0.996
vt 0.926 0.996
vt 0.924 0.984
vt 0.956 0.982
vt 0.893 0.996
vt 0.924 0.984
vt 0.926 0.996
vt 0.893 0.996
vt 0.893 0.963
vt 0.924 0.984
vt 0.924 0.984
vt 0.893 0.963
vt 0.92 0.964
vt 0.956 0.982
vt 0.924 0.984
vt 0.92 0.964
vt 0.956 0.982
vt 0.92 0.964
vt 0.951 0.964
vt 0.978 0.979
vt 0.956 0.982
vt 0.951 0.964
vt 0.978 0.979
vt 0.951 0.964
vt 0.977 0.963
vt 0.978 0.979
vt 0.977 0.963
vt 0.998 0.962
vt 0.978 0.979
vt 0.998 0.962
vt 0.998 0.978
vt 0.978 0.979
vt 0.998 0.978
vt 0.998 0.962
vt 0.978 0.979
vt 0.998 0.962
vt 0.977 0.963
vt 0.978 0.979
vt 0.977 0.963
vt 0.951 0.964
vt 0.978 0.979
vt 0.951 0.964
vt 0.956 0.982
vt 0.956 0.982
vt 0.951 0.964
vt 0.92 0.964
vt 0.956 0.982
vt 0.92 0.964
vt 0.924 0.984
vt 0.924 0.984
vt 0.92 0.964
vt 0.893 0.963
vt 0.893 0.996
vt 0.924 0.984
vt 0.893 0.963
vt 0.893 0.996
vt 0.926 0.996
vt 0.924 0.984
vt 0.926 0.996
vt 0.956 0.982
vt 0.924 0.984
vt 0.926 0.996
vt 0.963 0.996
vt 0.956 0.982
vt 0.963 0.996
vt 0.978 0.979
vt 0.956 0.982
vt 0.963 0.996
vt 0.983 0.997
vt 0.978 0.979
vt 0.983 0.997
vt 0.998 0.978
vt 0.978 0.979
vt 0.983 0.997
vt 0.997 0.997
vt 0.998 0.978
vt 0.922 0.961
vt 0.894 0.962
vt 0.894 0.937
vt 0.922 0.961
vt 0.894 0.937
vt 0.922 0.932
vt 0.948 0.932
vt 0.922 0.961
vt 0.922 0.932
vt 0.948 0.932
vt 0.948 0.962
vt 0.922 0.961
vt 0.948 0.962
vt 0.948 0.932
vt 0.974 0.931
vt 0.948 0.962
vt 0.974 0.931
vt 0.972 0.962
vt 0.974 0.931
vt 0.998 0.962
vt 0.972 0.962
vt 0.974 0.931
vt 0.998 0.932
vt 0.998 0.962
usemtl acmat_0
f 44/1/1 25/2/2 24/3/3
f 44/4/4 45/5/5 25/6/6
f 46/7/7 45/8/8 44/9/9
f 46/10/10 44/11/11 43/12/12
f 43/13/13 42/14/14 46/15/15
f 43/16/16 41/17/17 42/18/18
f 42/19/19 41/20/20 40/21/21
f 42/22/22 40/23/23 39/24/24
f 9/25/25 4/26/26 3/27/27
f 9/28/28 10/29/29 4/30/30
f 12/31/31 10/32/32 9/33/33
f 12/34/34 11/35/35 10/36/36
f 6/37/37 11/38/38 12/39/39
f 6/40/40 15/41/41 11/42/42
f 5/43/43 15/44/44 6/45/45
f 5/46/46 14/47/47 15/48/48
f 15/49/49 14/50/50 13/51/51
f 11/52/52 15/53/53 13/54/54
f 11/55/55 13/56/56 8/57/57
f 10/58/58 11/59/59 8/60/60
f 10/61/61 8/62/62 7/63/63
f 10/64/64 7/65/65 2/66/66
f 10/67/67 2/68/68 4/69/69
f 33/70/70 26/71/71 25/72/72
f 33/73/73 25/74/74 31/75/75
f 33/76/76 31/77/77 30/78/78
f 33/79/79 30/80/80 32/81/81
f 32/82/82 30/83/83 37/84/84
f 32/85/85 37/86/86 38/87/87
f 38/88/88 37/89/89 36/90/90
f 28/91/91 38/92/92 36/93/93
f 28/94/94 29/95/95 38/96/96
f 29/97/97 32/98/98 38/99/99
f 29/100/100 35/101/101 32/102/102
f 35/103/103 33/104/104 32/105/105
f 35/106/106 34/107/107 33/108/108
f 34/109/109 26/110/110 33/111/111
f 34/112/112 27/113/113 26/114/114
f 19/115/115 18/116/116 17/117/117
f 19/118/118 17/119/119 16/120/120
f 22/121/121 19/122/122 16/123/123
f 22/124/124 23/125/125 19/126/126
f 23/127/127 22/128/128 21/129/129
f 23/130/130 21/131/131 20/132/132
f 21/133/133 2/134/134 20/135/135
f 21/136/136 1/137/137 2/138/138
