mtllib avatar_eyelashes-Express_Anger_Emote.mtl
g g0
g g1_avatar_eyelashes
v 0.055306 1.75935 0.088341
v 0.054312 1.7616 0.085625
v 0.057807 1.76401 0.089872
v 0.056257 1.76227 0.088611
v 0.021666 1.76505 0.096617
v 0.033781 1.7679 0.103836
v 0.050899 1.76458 0.088711
v 0.043608 1.76811 0.093693
v 0.05503 1.76629 0.094736
v 0.053056 1.76483 0.092993
v 0.046074 1.76778 0.099405
v 0.048403 1.7698 0.101409
v 0.032128 1.76801 0.09588
v 0.02216 1.76537 0.091071
v 0.033093 1.76727 0.101332
v 0.032832 1.75135 0.09675
v 0.019961 1.7579 0.092334
v 0.019756 1.76036 0.090807
v 0.03288 1.75354 0.094261
v 0.049963 1.75598 0.089128
v 0.051305 1.75315 0.090988
v 0.043855 1.75064 0.095069
v 0.043674 1.75349 0.093011
v -0.055306 1.75935 0.088341
v -0.054312 1.7616 0.085625
v -0.056257 1.76227 0.088611
v -0.057807 1.76401 0.089872
v -0.021666 1.76505 0.096617
v -0.033781 1.7679 0.103836
v -0.043608 1.76811 0.093693
v -0.050899 1.76458 0.088711
v -0.046074 1.76778 0.099405
v -0.053056 1.76483 0.092993
v -0.05503 1.76629 0.094736
v -0.048403 1.7698 0.101409
v -0.02216 1.76537 0.091071
v -0.032128 1.76801 0.09588
v -0.033093 1.76727 0.101332
v -0.019756 1.76036 0.090807
v -0.019961 1.7579 0.092334
v -0.032832 1.75135 0.09675
v -0.03288 1.75354 0.094261
v -0.043855 1.75064 0.095069
v -0.051305 1.75315 0.090988
v -0.049963 1.75598 0.089128
v -0.043674 1.75349 0.093011
vn 0.00882865 0.605709 0.795638
vn 0.255339 0.581235 0.772637
vn 0.472456 0.585966 0.658354
vn 0.00882865 0.605709 0.795638
vn -0.103861 0.580189 0.807833
vn 0.255339 0.581235 0.772637
vn -0.186223 0.592617 0.783662
vn -0.103861 0.580189 0.807833
vn 0.00882865 0.605709 0.795638
vn -0.186223 0.592617 0.783662
vn 0.00882865 0.605709 0.795638
vn -0.159843 0.639821 0.751718
vn -0.159843 0.639821 0.751718
vn -0.11309 0.655451 0.746723
vn -0.186223 0.592617 0.783662
vn -0.159843 0.639821 0.751718
vn -0.149955 0.740837 0.654732
vn -0.11309 0.655451 0.746723
vn -0.11309 0.655451 0.746723
vn -0.149955 0.740837 0.654732
vn -0.103607 0.64255 0.759207
vn -0.11309 0.655451 0.746723
vn -0.103607 0.64255 0.759207
vn -0.0525441 0.529818 0.846482
vn 0.203841 -0.80112 0.562721
vn 0.0867782 -0.854434 0.512262
vn 0.374111 -0.739162 0.560072
vn 0.203841 -0.80112 0.562721
vn -0.136459 -0.908771 0.394352
vn 0.0867782 -0.854434 0.512262
vn 0.170962 -0.805417 0.567517
vn -0.136459 -0.908771 0.394352
vn 0.203841 -0.80112 0.562721
vn 0.170962 -0.805417 0.567517
vn 0.0280799 -0.97422 0.223844
vn -0.136459 -0.908771 0.394352
vn 0.125343 -0.930419 0.344398
vn 0.0280799 -0.97422 0.223844
vn 0.170962 -0.805417 0.567517
vn 0.125343 -0.930419 0.344398
vn 0.148985 -0.988699 0.0166855
vn 0.0280799 -0.97422 0.223844
vn 0.153859 -0.983951 0.0903798
vn 0.148985 -0.988699 0.0166855
vn 0.125343 -0.930419 0.344398
vn 0.153859 -0.983951 0.0903798
vn 0.271161 -0.956007 -0.111902
vn 0.148985 -0.988699 0.0166855
vn 0.148985 -0.988699 0.0166855
vn 0.271161 -0.956007 -0.111902
vn 0.118377 -0.984668 -0.128123
vn 0.0280799 -0.97422 0.223844
vn 0.148985 -0.988699 0.0166855
vn 0.118377 -0.984668 -0.128123
vn 0.02808 -0.97422 0.223844
vn 0.118377 -0.984668 -0.128123
vn -0.213783 -0.97359 0.0801192
vn -0.136459 -0.908771 0.394352
vn 0.0280799 -0.97422 0.223844
vn -0.213783 -0.97359 0.0801192
vn -0.136459 -0.908771 0.394352
vn -0.213783 -0.97359 0.0801192
vn -0.390745 -0.886301 0.248575
vn -0.136459 -0.908771 0.394352
vn -0.390745 -0.886301 0.248575
vn -0.355906 -0.876687 0.323651
vn -0.136459 -0.908771 0.394352
vn -0.355906 -0.876687 0.323651
vn 0.0867782 -0.854434 0.512262
vn 0.136459 -0.908771 0.394352
vn -0.0867782 -0.854434 0.512262
vn 0.355906 -0.876687 0.323651
vn 0.136459 -0.908771 0.394352
vn 0.355906 -0.876687 0.323651
vn 0.390745 -0.886301 0.248575
vn 0.136459 -0.908771 0.394352
vn 0.390745 -0.886301 0.248575
vn 0.213783 -0.97359 0.0801192
vn 0.136459 -0.908771 0.394352
vn 0.213783 -0.97359 0.0801192
vn -0.0280799 -0.97422 0.223844
vn -0.0280799 -0.97422 0.223844
vn 0.213783 -0.97359 0.0801192
vn -0.118377 -0.984668 -0.128123
vn -0.0280799 -0.97422 0.223844
vn -0.118377 -0.984668 -0.128123
vn -0.148985 -0.988699 0.0166855
vn -0.148985 -0.988699 0.0166855
vn -0.118377 -0.984668 -0.128123
vn -0.271161 -0.956007 -0.111902
vn -0.153859 -0.983951 0.0903798
vn -0.148985 -0.988699 0.0166855
vn -0.271161 -0.956007 -0.111902
vn -0.153859 -0.983951 0.0903798
vn -0.125343 -0.930419 0.344398
vn -0.148985 -0.988699 0.0166855
vn -0.125343 -0.930419 0.344398
vn -0.0280799 -0.97422 0.223844
vn -0.148985 -0.988699 0.0166855
vn -0.125343 -0.930419 0.344398
vn -0.170962 -0.805417 0.567517
vn -0.0280799 -0.97422 0.223844
vn -0.170962 -0.805417 0.567517
vn 0.136459 -0.908771 0.394352
vn -0.0280799 -0.97422 0.223844
vn -0.170962 -0.805417 0.567517
vn -0.203841 -0.80112 0.562721
vn 0.136459 -0.908771 0.394352
vn -0.203841 -0.80112 0.562721
vn -0.0867782 -0.854434 0.512262
vn 0.136459 -0.908771 0.394352
vn -0.203841 -0.80112 0.562721
vn -0.374111 -0.739162 0.560072
vn -0.0867782 -0.854434 0.512262
vn 0.11309 0.655451 0.746723
vn 0.0525441 0.529818 0.846482
vn 0.103607 0.64255 0.759207
vn 0.11309 0.655451 0.746723
vn 0.103607 0.64255 0.759207
vn 0.149955 0.740837 0.654732
vn 0.159843 0.639821 0.751718
vn 0.11309 0.655451 0.746723
vn 0.149955 0.740837 0.654732
vn 0.159843 0.639821 0.751718
vn 0.186223 0.592617 0.783662
vn 0.11309 0.655451 0.746723
vn 0.186223 0.592617 0.783662
vn 0.159843 0.639821 0.751718
vn -0.00882865 0.605709 0.795638
vn 0.186223 0.592617 0.783662
vn -0.00882865 0.605709 0.795638
vn 0.103861 0.580189 0.807833
vn -0.00882865 0.605709 0.795638
vn -0.255339 0.581235 0.772637
vn 0.103861 0.580189 0.807833
vn -0.00882865 0.605709 0.795638
vn -0.472456 0.585966 0.658354
vn -0.255339 0.581235 0.772637
vt 0.974 0.931
vt 0.998 0.962
vt 0.998 0.932
vt 0.974 0.931
vt 0.972 0.962
vt 0.998 0.962
vt 0.948 0.962
vt 0.972 0.962
vt 0.974 0.931
vt 0.948 0.962
vt 0.974 0.931
vt 0.948 0.932
vt 0.948 0.932
vt 0.922 0.961
vt 0.948 0.962
vt 0.948 0.932
vt 0.922 0.932
vt 0.922 0.961
vt 0.922 0.961
vt 0.922 0.932
vt 0.894 0.937
vt 0.922 0.961
vt 0.894 0.937
vt 0.894 0.962
vt 0.983 0.997
vt 0.998 0.978
vt 0.997 0.997
vt 0.983 0.997
vt 0.978 0.979
vt 0.998 0.978
vt 0.963 0.996
vt 0.978 0.979
vt 0.983 0.997
vt 0.963 0.996
vt 0.956 0.982
vt 0.978 0.979
vt 0.926 0.996
vt 0.956 0.982
vt 0.963 0.996
vt 0.926 0.996
vt 0.924 0.984
vt 0.956 0.982
vt 0.893 0.996
vt 0.924 0.984
vt 0.926 0.996
vt 0.893 0.996
vt 0.893 0.963
vt 0.924 0.984
vt 0.924 0.984
vt 0.893 0.963
vt 0.92 0.964
vt 0.956 0.982
vt 0.924 0.984
vt 0.92 0.964
vt 0.956 0.982
vt 0.92 0.964
vt 0.951 0.964
vt 0.978 0.979
vt 0.956 0.982
vt 0.951 0.964
vt 0.978 0.979
vt 0.951 0.964
vt 0.977 0.963
vt 0.978 0.979
vt 0.977 0.963
vt 0.998 0.962
vt 0.978 0.979
vt 0.998 0.962
vt 0.998 0.978
vt 0.978 0.979
vt 0.998 0.978
vt 0.998 0.962
vt 0.978 0.979
vt 0.998 0.962
vt 0.977 0.963
vt 0.978 0.979
vt 0.977 0.963
vt 0.951 0.964
vt 0.978 0.979
vt 0.951 0.964
vt 0.956 0.982
vt 0.956 0.982
vt 0.951 0.964
vt 0.92 0.964
vt 0.956 0.982
vt 0.92 0.964
vt 0.924 0.984
vt 0.924 0.984
vt 0.92 0.964
vt 0.893 0.963
vt 0.893 0.996
vt 0.924 0.984
vt 0.893 0.963
vt 0.893 0.996
vt 0.926 0.996
vt 0.924 0.984
vt 0.926 0.996
vt 0.956 0.982
vt 0.924 0.984
vt 0.926 0.996
vt 0.963 0.996
vt 0.956 0.982
vt 0.963 0.996
vt 0.978 0.979
vt 0.956 0.982
vt 0.963 0.996
vt 0.983 0.997
vt 0.978 0.979
vt 0.983 0.997
vt 0.998 0.978
vt 0.978 0.979
vt 0.983 0.997
vt 0.997 0.997
vt 0.998 0.978
vt 0.922 0.961
vt 0.894 0.962
vt 0.894 0.937
vt 0.922 0.961
vt 0.894 0.937
vt 0.922 0.932
vt 0.948 0.932
vt 0.922 0.961
vt 0.922 0.932
vt 0.948 0.932
vt 0.948 0.962
vt 0.922 0.961
vt 0.948 0.962
vt 0.948 0.932
vt 0.974 0.931
vt 0.948 0.962
vt 0.974 0.931
vt 0.972 0.962
vt 0.974 0.931
vt 0.998 0.962
vt 0.972 0.962
vt 0.974 0.931
vt 0.998 0.932
vt 0.998 0.962
usemtl acmat_0
f 44/1/1 25/2/2 24/3/3
f 44/4/4 45/5/5 25/6/6
f 46/7/7 45/8/8 44/9/9
f 46/10/10 44/11/11 43/12/12
f 43/13/13 42/14/14 46/15/15
f 43/16/16 41/17/17 42/18/18
f 42/19/19 41/20/20 40/21/21
f 42/22/22 40/23/23 39/24/24
f 9/25/25 4/26/26 3/27/27
f 9/28/28 10/29/29 4/30/30
f 12/31/31 10/32/32 9/33/33
f 12/34/34 11/35/35 10/36/36
f 6/37/37 11/38/38 12/39/39
f 6/40/40 15/41/41 11/42/42
f 5/43/43 15/44/44 6/45/45
f 5/46/46 14/47/47 15/48/48
f 15/49/49 14/50/50 13/51/51
f 11/52/52 15/53/53 13/54/54
f 11/55/55 13/56/56 8/57/57
f 10/58/58 11/59/59 8/60/60
f 10/61/61 8/62/62 7/63/63
f 10/64/64 7/65/65 2/66/66
f 10/67/67 2/68/68 4/69/69
f 33/70/70 26/71/71 25/72/72
f 33/73/73 25/74/74 31/75/75
f 33/76/76 31/77/77 30/78/78
f 33/79/79 30/80/80 32/81/81
f 32/82/82 30/83/83 37/84/84
f 32/85/85 37/86/86 38/87/87
f 38/88/88 37/89/89 36/90/90
f 28/91/91 38/92/92 36/93/93
f 28/94/94 29/95/95 38/96/96
f 29/97/97 32/98/98 38/99/99
f 29/100/100 35/101/101 32/102/102
f 35/103/103 33/104/104 32/105/105
f 35/106/106 34/107/107 33/108/108
f 34/109/109 26/110/110 33/111/111
f 34/112/112 27/113/113 26/114/114
f 19/115/115 18/116/116 17/117/117
f 19/118/118 17/119/119 16/120/120
f 22/121/121 19/122/122 16/123/123
f 22/124/124 23/125/125 19/126/126
f 23/127/127 22/128/128 21/129/129
f 23/130/130 21/131/131 20/132/132
f 21/133/133 2/134/134 20/135/135
f 21/136/136 1/137/137 2/138/138
